<svg xmlns="http://www.w3.org/2000/svg" xmlns:xlink="http://www.w3.org/1999/xlink" width="500" zoomAndPan="magnify" viewBox="108 125 175 98.999991" height="500" preserveAspectRatio="xMidYMid meet" version="1.2"><defs><clipPath id="c0ac7fe801"><path d="M 110.269531 96.421875 L 222.769531 96.421875 L 222.769531 208.921875 L 110.269531 208.921875 Z M 110.269531 96.421875 "/></clipPath><clipPath id="bdd010d365"><path d="M 166.519531 96.421875 C 135.453125 96.421875 110.269531 121.605469 110.269531 152.671875 C 110.269531 183.738281 135.453125 208.921875 166.519531 208.921875 C 197.582031 208.921875 222.769531 183.738281 222.769531 152.671875 C 222.769531 121.605469 197.582031 96.421875 166.519531 96.421875 Z M 166.519531 96.421875 "/></clipPath><linearGradient x1="-0.000010455" gradientTransform="matrix(0.439453,0,0,0.439453,110.267786,96.421508)" y1="128" x2="255.999976" gradientUnits="userSpaceOnUse" y2="128" id="9c2d4b8faf"><stop style="stop-color:#000000;stop-opacity:1;" offset="0"/><stop style="stop-color:#000000;stop-opacity:1;" offset="0.0078125"/><stop style="stop-color:#010101;stop-opacity:1;" offset="0.015625"/><stop style="stop-color:#020202;stop-opacity:1;" offset="0.0234375"/><stop style="stop-color:#030303;stop-opacity:1;" offset="0.03125"/><stop style="stop-color:#040404;stop-opacity:1;" offset="0.0390625"/><stop style="stop-color:#050505;stop-opacity:1;" offset="0.046875"/><stop style="stop-color:#060606;stop-opacity:1;" offset="0.0546875"/><stop style="stop-color:#070707;stop-opacity:1;" offset="0.0625"/><stop style="stop-color:#080808;stop-opacity:1;" offset="0.0703125"/><stop style="stop-color:#090909;stop-opacity:1;" offset="0.078125"/><stop style="stop-color:#090909;stop-opacity:1;" offset="0.0859375"/><stop style="stop-color:#0a0a0a;stop-opacity:1;" offset="0.09375"/><stop style="stop-color:#0b0b0b;stop-opacity:1;" offset="0.101562"/><stop style="stop-color:#0c0c0c;stop-opacity:1;" offset="0.109375"/><stop style="stop-color:#0d0d0d;stop-opacity:1;" offset="0.117188"/><stop style="stop-color:#0e0e0e;stop-opacity:1;" offset="0.125"/><stop style="stop-color:#0f0f0f;stop-opacity:1;" offset="0.132812"/><stop style="stop-color:#101010;stop-opacity:1;" offset="0.140625"/><stop style="stop-color:#111111;stop-opacity:1;" offset="0.148438"/><stop style="stop-color:#121212;stop-opacity:1;" offset="0.15625"/><stop style="stop-color:#121212;stop-opacity:1;" offset="0.164062"/><stop style="stop-color:#131313;stop-opacity:1;" offset="0.171875"/><stop style="stop-color:#141414;stop-opacity:1;" offset="0.179688"/><stop style="stop-color:#151515;stop-opacity:1;" offset="0.1875"/><stop style="stop-color:#161616;stop-opacity:1;" offset="0.195312"/><stop style="stop-color:#171717;stop-opacity:1;" offset="0.203125"/><stop style="stop-color:#181818;stop-opacity:1;" offset="0.210938"/><stop style="stop-color:#191919;stop-opacity:1;" offset="0.21875"/><stop style="stop-color:#1a1a1a;stop-opacity:1;" offset="0.226562"/><stop style="stop-color:#1b1b1b;stop-opacity:1;" offset="0.234375"/><stop style="stop-color:#1b1b1b;stop-opacity:1;" offset="0.242188"/><stop style="stop-color:#1c1c1c;stop-opacity:1;" offset="0.25"/><stop style="stop-color:#1d1d1d;stop-opacity:1;" offset="0.257812"/><stop style="stop-color:#1e1e1e;stop-opacity:1;" offset="0.265625"/><stop style="stop-color:#1f1f1f;stop-opacity:1;" offset="0.273437"/><stop style="stop-color:#202020;stop-opacity:1;" offset="0.28125"/><stop style="stop-color:#212121;stop-opacity:1;" offset="0.289063"/><stop style="stop-color:#222222;stop-opacity:1;" offset="0.296875"/><stop style="stop-color:#232323;stop-opacity:1;" offset="0.304688"/><stop style="stop-color:#232323;stop-opacity:1;" offset="0.3125"/><stop style="stop-color:#242424;stop-opacity:1;" offset="0.320312"/><stop style="stop-color:#252525;stop-opacity:1;" offset="0.328125"/><stop style="stop-color:#262626;stop-opacity:1;" offset="0.335937"/><stop style="stop-color:#272727;stop-opacity:1;" offset="0.34375"/><stop style="stop-color:#282828;stop-opacity:1;" offset="0.351563"/><stop style="stop-color:#292929;stop-opacity:1;" offset="0.359375"/><stop style="stop-color:#2a2a2a;stop-opacity:1;" offset="0.367188"/><stop style="stop-color:#2b2b2b;stop-opacity:1;" offset="0.375"/><stop style="stop-color:#2c2c2c;stop-opacity:1;" offset="0.382812"/><stop style="stop-color:#2c2c2c;stop-opacity:1;" offset="0.390625"/><stop style="stop-color:#2d2d2d;stop-opacity:1;" offset="0.398437"/><stop style="stop-color:#2e2e2e;stop-opacity:1;" offset="0.40625"/><stop style="stop-color:#2f2f2f;stop-opacity:1;" offset="0.414063"/><stop style="stop-color:#303030;stop-opacity:1;" offset="0.421875"/><stop style="stop-color:#313131;stop-opacity:1;" offset="0.429688"/><stop style="stop-color:#323232;stop-opacity:1;" offset="0.4375"/><stop style="stop-color:#333333;stop-opacity:1;" offset="0.445312"/><stop style="stop-color:#343434;stop-opacity:1;" offset="0.453125"/><stop style="stop-color:#353535;stop-opacity:1;" offset="0.460937"/><stop style="stop-color:#353535;stop-opacity:1;" offset="0.46875"/><stop style="stop-color:#363636;stop-opacity:1;" offset="0.476563"/><stop style="stop-color:#373737;stop-opacity:1;" offset="0.484375"/><stop style="stop-color:#383838;stop-opacity:1;" offset="0.492188"/><stop style="stop-color:#393939;stop-opacity:1;" offset="0.5"/><stop style="stop-color:#3a3a3a;stop-opacity:1;" offset="0.507812"/><stop style="stop-color:#3b3b3b;stop-opacity:1;" offset="0.515625"/><stop style="stop-color:#3c3c3c;stop-opacity:1;" offset="0.523438"/><stop style="stop-color:#3d3d3d;stop-opacity:1;" offset="0.53125"/><stop style="stop-color:#3e3e3e;stop-opacity:1;" offset="0.539062"/><stop style="stop-color:#3e3e3e;stop-opacity:1;" offset="0.546875"/><stop style="stop-color:#3f3f3f;stop-opacity:1;" offset="0.554688"/><stop style="stop-color:#404040;stop-opacity:1;" offset="0.5625"/><stop style="stop-color:#414141;stop-opacity:1;" offset="0.570312"/><stop style="stop-color:#424242;stop-opacity:1;" offset="0.578125"/><stop style="stop-color:#434343;stop-opacity:1;" offset="0.585938"/><stop style="stop-color:#444444;stop-opacity:1;" offset="0.59375"/><stop style="stop-color:#454545;stop-opacity:1;" offset="0.601562"/><stop style="stop-color:#464646;stop-opacity:1;" offset="0.609375"/><stop style="stop-color:#474747;stop-opacity:1;" offset="0.617188"/><stop style="stop-color:#474747;stop-opacity:1;" offset="0.625"/><stop style="stop-color:#484848;stop-opacity:1;" offset="0.632812"/><stop style="stop-color:#494949;stop-opacity:1;" offset="0.640625"/><stop style="stop-color:#4a4a4a;stop-opacity:1;" offset="0.648438"/><stop style="stop-color:#4b4b4b;stop-opacity:1;" offset="0.65625"/><stop style="stop-color:#4c4c4c;stop-opacity:1;" offset="0.664062"/><stop style="stop-color:#4d4d4d;stop-opacity:1;" offset="0.671875"/><stop style="stop-color:#4e4e4e;stop-opacity:1;" offset="0.679688"/><stop style="stop-color:#4f4f4f;stop-opacity:1;" offset="0.6875"/><stop style="stop-color:#505050;stop-opacity:1;" offset="0.695312"/><stop style="stop-color:#505050;stop-opacity:1;" offset="0.703125"/><stop style="stop-color:#515151;stop-opacity:1;" offset="0.710938"/><stop style="stop-color:#525252;stop-opacity:1;" offset="0.71875"/><stop style="stop-color:#535353;stop-opacity:1;" offset="0.726562"/><stop style="stop-color:#545454;stop-opacity:1;" offset="0.734375"/><stop style="stop-color:#555555;stop-opacity:1;" offset="0.742188"/><stop style="stop-color:#565656;stop-opacity:1;" offset="0.75"/><stop style="stop-color:#575757;stop-opacity:1;" offset="0.757812"/><stop style="stop-color:#585858;stop-opacity:1;" offset="0.765625"/><stop style="stop-color:#585858;stop-opacity:1;" offset="0.773438"/><stop style="stop-color:#595959;stop-opacity:1;" offset="0.78125"/><stop style="stop-color:#5a5a5a;stop-opacity:1;" offset="0.789062"/><stop style="stop-color:#5b5b5b;stop-opacity:1;" offset="0.796875"/><stop style="stop-color:#5c5c5c;stop-opacity:1;" offset="0.804688"/><stop style="stop-color:#5d5d5d;stop-opacity:1;" offset="0.8125"/><stop style="stop-color:#5e5e5e;stop-opacity:1;" offset="0.820312"/><stop style="stop-color:#5f5f5f;stop-opacity:1;" offset="0.828125"/><stop style="stop-color:#606060;stop-opacity:1;" offset="0.835938"/><stop style="stop-color:#616161;stop-opacity:1;" offset="0.84375"/><stop style="stop-color:#616161;stop-opacity:1;" offset="0.851562"/><stop style="stop-color:#626262;stop-opacity:1;" offset="0.859375"/><stop style="stop-color:#636363;stop-opacity:1;" offset="0.867188"/><stop style="stop-color:#646464;stop-opacity:1;" offset="0.875"/><stop style="stop-color:#656565;stop-opacity:1;" offset="0.882812"/><stop style="stop-color:#666666;stop-opacity:1;" offset="0.890625"/><stop style="stop-color:#676767;stop-opacity:1;" offset="0.898438"/><stop style="stop-color:#686868;stop-opacity:1;" offset="0.90625"/><stop style="stop-color:#696969;stop-opacity:1;" offset="0.914062"/><stop style="stop-color:#6a6a6a;stop-opacity:1;" offset="0.921875"/><stop style="stop-color:#6a6a6a;stop-opacity:1;" offset="0.929688"/><stop style="stop-color:#6b6b6b;stop-opacity:1;" offset="0.9375"/><stop style="stop-color:#6c6c6c;stop-opacity:1;" offset="0.945312"/><stop style="stop-color:#6d6d6d;stop-opacity:1;" offset="0.953125"/><stop style="stop-color:#6e6e6e;stop-opacity:1;" offset="0.960938"/><stop style="stop-color:#6f6f6f;stop-opacity:1;" offset="0.96875"/><stop style="stop-color:#707070;stop-opacity:1;" offset="0.976562"/><stop style="stop-color:#717171;stop-opacity:1;" offset="0.984375"/><stop style="stop-color:#727272;stop-opacity:1;" offset="0.992188"/><stop style="stop-color:#737373;stop-opacity:1;" offset="1"/></linearGradient><clipPath id="1bea2407bb"><path d="M 120.75 98.980469 L 233.25 98.980469 L 233.25 211.480469 L 120.75 211.480469 Z M 120.75 98.980469 "/></clipPath><clipPath id="1f776cf0da"><path d="M 177 98.980469 C 145.933594 98.980469 120.75 124.164062 120.75 155.230469 C 120.75 186.296875 145.933594 211.480469 177 211.480469 C 208.066406 211.480469 233.25 186.296875 233.25 155.230469 C 233.25 124.164062 208.066406 98.980469 177 98.980469 Z M 177 98.980469 "/></clipPath><clipPath id="6edd0cbd45"><path d="M 110.269531 96.421875 L 222.769531 96.421875 L 222.769531 208.921875 L 110.269531 208.921875 Z M 110.269531 96.421875 "/></clipPath><clipPath id="eaa5bd607d"><path d="M 166.519531 96.421875 C 135.453125 96.421875 110.269531 121.605469 110.269531 152.671875 C 110.269531 183.738281 135.453125 208.921875 166.519531 208.921875 C 197.582031 208.921875 222.769531 183.738281 222.769531 152.671875 C 222.769531 121.605469 197.582031 96.421875 166.519531 96.421875 Z M 166.519531 96.421875 "/></clipPath></defs><g id="5587333970"><g clip-rule="nonzero" clip-path="url(#c0ac7fe801)"><g clip-rule="nonzero" clip-path="url(#bdd010d365)"><path style=" stroke:none;fill-rule:nonzero;fill:url(#9c2d4b8faf);" d="M 110.269531 96.421875 L 110.269531 208.921875 L 222.769531 208.921875 L 222.769531 96.421875 Z M 110.269531 96.421875 "/></g></g><g clip-rule="nonzero" clip-path="url(#1bea2407bb)"><g clip-rule="nonzero" clip-path="url(#1f776cf0da)"><path style=" stroke:none;fill-rule:nonzero;fill:#5271ff;fill-opacity:1;" d="M 120.75 98.980469 L 233.25 98.980469 L 233.25 211.480469 L 120.75 211.480469 Z M 120.75 98.980469 "/></g></g><g clip-rule="nonzero" clip-path="url(#6edd0cbd45)"><g clip-rule="nonzero" clip-path="url(#eaa5bd607d)"><path style=" stroke:none;fill-rule:nonzero;fill:#ffffff;fill-opacity:1;" d="M 110.269531 96.421875 L 222.769531 96.421875 L 222.769531 208.921875 L 110.269531 208.921875 Z M 110.269531 96.421875 "/></g></g><g style="fill:#407bff;fill-opacity:0.4;"><g transform="translate(137.426011, 195.216441)"><path style="stroke:none" d="M 37.40625 -38.890625 C 48.1875 -28.535156 55.832031 -20.75 60.34375 -15.53125 C 62.664062 -12.925781 63.828125 -10.722656 63.828125 -8.921875 C 63.828125 -7.128906 62.414062 -5.015625 59.59375 -2.578125 C 56.78125 -0.148438 54.472656 1.0625 52.671875 1.0625 C 50.878906 1.0625 48.710938 -0.414062 46.171875 -3.375 L 22.9375 -29.90625 L 22.9375 -9.296875 C 22.9375 -7.609375 22.878906 -6.375 22.765625 -5.59375 C 22.660156 -4.820312 22.328125 -3.910156 21.765625 -2.859375 C 20.773438 -0.953125 18.03125 0 13.53125 0 C 8.59375 0 5.703125 -1.335938 4.859375 -4.015625 C 4.441406 -5.140625 4.234375 -6.9375 4.234375 -9.40625 L 4.234375 -68.15625 C 4.234375 -69.78125 4.285156 -70.992188 4.390625 -71.796875 C 4.492188 -72.609375 4.828125 -73.546875 5.390625 -74.609375 C 6.378906 -76.503906 9.125 -77.453125 13.625 -77.453125 C 18.5625 -77.453125 21.488281 -76.148438 22.40625 -73.546875 C 22.757812 -72.347656 22.9375 -70.515625 22.9375 -68.046875 L 22.9375 -47.875 C 32.507812 -58.644531 40.253906 -67.484375 46.171875 -74.390625 C 48.640625 -77.273438 50.789062 -78.71875 52.625 -78.71875 C 54.457031 -78.71875 56.78125 -77.503906 59.59375 -75.078125 C 62.414062 -72.648438 63.828125 -70.535156 63.828125 -68.734375 C 63.828125 -66.941406 62.769531 -64.8125 60.65625 -62.34375 C 56.570312 -57.625 50.234375 -51.144531 41.640625 -42.90625 Z M 37.40625 -38.890625 "/></g></g><g style="fill:#407bff;fill-opacity:1;"><g transform="translate(132.756061, 190.54649)"><path style="stroke:none" d="M 37.40625 -38.890625 C 48.1875 -28.535156 55.832031 -20.75 60.34375 -15.53125 C 62.664062 -12.925781 63.828125 -10.722656 63.828125 -8.921875 C 63.828125 -7.128906 62.414062 -5.015625 59.59375 -2.578125 C 56.78125 -0.148438 54.472656 1.0625 52.671875 1.0625 C 50.878906 1.0625 48.710938 -0.414062 46.171875 -3.375 L 22.9375 -29.90625 L 22.9375 -9.296875 C 22.9375 -7.609375 22.878906 -6.375 22.765625 -5.59375 C 22.660156 -4.820312 22.328125 -3.910156 21.765625 -2.859375 C 20.773438 -0.953125 18.03125 0 13.53125 0 C 8.59375 0 5.703125 -1.335938 4.859375 -4.015625 C 4.441406 -5.140625 4.234375 -6.9375 4.234375 -9.40625 L 4.234375 -68.15625 C 4.234375 -69.78125 4.285156 -70.992188 4.390625 -71.796875 C 4.492188 -72.609375 4.828125 -73.546875 5.390625 -74.609375 C 6.378906 -76.503906 9.125 -77.453125 13.625 -77.453125 C 18.5625 -77.453125 21.488281 -76.148438 22.40625 -73.546875 C 22.757812 -72.347656 22.9375 -70.515625 22.9375 -68.046875 L 22.9375 -47.875 C 32.507812 -58.644531 40.253906 -67.484375 46.171875 -74.390625 C 48.640625 -77.273438 50.789062 -78.71875 52.625 -78.71875 C 54.457031 -78.71875 56.78125 -77.503906 59.59375 -75.078125 C 62.414062 -72.648438 63.828125 -70.535156 63.828125 -68.734375 C 63.828125 -66.941406 62.769531 -64.8125 60.65625 -62.34375 C 56.570312 -57.625 50.234375 -51.144531 41.640625 -42.90625 Z M 37.40625 -38.890625 "/></g></g></g></svg>