
<svg xmlns="http://www.w3.org/2000/svg" xmlns:xlink="http://www.w3.org/1999/xlink" width="750" zoomAndPan="magnify" viewBox="0 0 562.5 187.499995" height="250" preserveAspectRatio="xMidYMid meet" version="1.2"><defs><clipPath id="ea228e770b"><path d="M 156 61 L 187 61 L 187 76 L 156 76 Z M 156 61 "/></clipPath><clipPath id="3f1b8b5070"><path d="M 140.921875 50.386719 L 199.878906 46.390625 L 202.410156 83.707031 L 143.453125 87.699219 Z M 140.921875 50.386719 "/></clipPath><clipPath id="5d135beea0"><path d="M 140.921875 50.386719 L 199.878906 46.390625 L 202.410156 83.707031 L 143.453125 87.699219 Z M 140.921875 50.386719 "/></clipPath><clipPath id="dd5bab02e0"><path d="M 141 48 L 201 48 L 201 71 L 141 71 Z M 141 48 "/></clipPath><clipPath id="761c9f3c2a"><path d="M 140.921875 50.386719 L 199.878906 46.390625 L 202.410156 83.707031 L 143.453125 87.699219 Z M 140.921875 50.386719 "/></clipPath><clipPath id="660d46f305"><path d="M 140.921875 50.386719 L 199.878906 46.390625 L 202.410156 83.707031 L 143.453125 87.699219 Z M 140.921875 50.386719 "/></clipPath><clipPath id="66ac8cf8ee"><path d="M 148 64 L 151 64 L 151 76 L 148 76 Z M 148 64 "/></clipPath><clipPath id="a323c994b7"><path d="M 140.921875 50.386719 L 199.878906 46.390625 L 202.410156 83.707031 L 143.453125 87.699219 Z M 140.921875 50.386719 "/></clipPath><clipPath id="08bb5c11bb"><path d="M 140.921875 50.386719 L 199.878906 46.390625 L 202.410156 83.707031 L 143.453125 87.699219 Z M 140.921875 50.386719 "/></clipPath><clipPath id="d08d99e049"><path d="M 147 76 L 154 76 L 154 87 L 147 87 Z M 147 76 "/></clipPath><clipPath id="6a240636f5"><path d="M 140.921875 50.386719 L 199.878906 46.390625 L 202.410156 83.707031 L 143.453125 87.699219 Z M 140.921875 50.386719 "/></clipPath><clipPath id="f276e6fde6"><path d="M 140.921875 50.386719 L 199.878906 46.390625 L 202.410156 83.707031 L 143.453125 87.699219 Z M 140.921875 50.386719 "/></clipPath><clipPath id="f483647fd9"><path d="M 148 79 L 150 79 L 150 87 L 148 87 Z M 148 79 "/></clipPath><clipPath id="a33efa0066"><path d="M 140.921875 50.386719 L 199.878906 46.390625 L 202.410156 83.707031 L 143.453125 87.699219 Z M 140.921875 50.386719 "/></clipPath><clipPath id="6b1776086a"><path d="M 140.921875 50.386719 L 199.878906 46.390625 L 202.410156 83.707031 L 143.453125 87.699219 Z M 140.921875 50.386719 "/></clipPath><clipPath id="2f9323b4ee"><path d="M 150 81 L 152 81 L 152 87 L 150 87 Z M 150 81 "/></clipPath><clipPath id="23f06af0ae"><path d="M 140.921875 50.386719 L 199.878906 46.390625 L 202.410156 83.707031 L 143.453125 87.699219 Z M 140.921875 50.386719 "/></clipPath><clipPath id="c0f2b90eaa"><path d="M 140.921875 50.386719 L 199.878906 46.390625 L 202.410156 83.707031 L 143.453125 87.699219 Z M 140.921875 50.386719 "/></clipPath><clipPath id="81ef220da8"><path d="M 151 79 L 153 79 L 153 87 L 151 87 Z M 151 79 "/></clipPath><clipPath id="d7459bf813"><path d="M 140.921875 50.386719 L 199.878906 46.390625 L 202.410156 83.707031 L 143.453125 87.699219 Z M 140.921875 50.386719 "/></clipPath><clipPath id="0970a7a4c4"><path d="M 140.921875 50.386719 L 199.878906 46.390625 L 202.410156 83.707031 L 143.453125 87.699219 Z M 140.921875 50.386719 "/></clipPath><clipPath id="67f8d6f911"><path d="M 148 73 L 152 73 L 152 77 L 148 77 Z M 148 73 "/></clipPath><clipPath id="3d69df613c"><path d="M 140.921875 50.386719 L 199.878906 46.390625 L 202.410156 83.707031 L 143.453125 87.699219 Z M 140.921875 50.386719 "/></clipPath><clipPath id="91beddd289"><path d="M 140.921875 50.386719 L 199.878906 46.390625 L 202.410156 83.707031 L 143.453125 87.699219 Z M 140.921875 50.386719 "/></clipPath></defs><g id="8374495375"><g clip-rule="nonzero" clip-path="url(#ea228e770b)"><g clip-rule="nonzero" clip-path="url(#3f1b8b5070)"><g clip-rule="nonzero" clip-path="url(#5d135beea0)"><path style=" stroke:none;fill-rule:nonzero;fill:#000000;fill-opacity:1;" d="M 165.539062 72.160156 C 169.675781 71.453125 174.648438 71.4375 178.847656 72.125 C 181.289062 72.523438 185.234375 73.464844 186.558594 75.488281 C 186.546875 75.367188 186.511719 75.253906 186.460938 75.144531 C 186.425781 73.546875 186.386719 71.824219 186.347656 70.050781 C 186.34375 70.054688 186.34375 70.054688 186.339844 70.054688 C 186.308594 68.648438 186.277344 67.21875 186.246094 65.800781 C 185.921875 64.339844 183.09375 63 178.84375 62.296875 C 174.671875 61.605469 169.726562 61.59375 165.609375 62.265625 C 161.066406 63.007812 158.003906 64.484375 156.972656 66.421875 C 156.949219 66.601562 156.910156 67.027344 156.933594 67.445312 C 156.988281 68.472656 157.050781 69.71875 157.113281 70.984375 C 157.109375 70.980469 157.101562 70.980469 157.09375 70.980469 C 157.195312 73.023438 157.261719 74.617188 157.289062 75.644531 C 158.546875 74.324219 160.953125 72.945312 165.539062 72.160156 "/></g></g></g><g clip-rule="nonzero" clip-path="url(#dd5bab02e0)"><g clip-rule="nonzero" clip-path="url(#761c9f3c2a)"><g clip-rule="nonzero" clip-path="url(#660d46f305)"><path style=" stroke:none;fill-rule:nonzero;fill:#000000;fill-opacity:1;" d="M 200.433594 59.941406 L 170.121094 48.460938 C 170.003906 48.417969 169.875 48.425781 169.761719 48.488281 L 142.089844 63.476562 C 141.929688 63.5625 141.832031 63.742188 141.84375 63.9375 C 141.855469 64.128906 141.972656 64.296875 142.140625 64.367188 L 156.089844 70.023438 C 156.050781 69.175781 156.003906 68.269531 155.949219 67.304688 C 155.914062 66.644531 156.007812 66 156.011719 65.972656 L 156.023438 65.886719 L 156.0625 65.808594 C 156.867188 64.203125 159.148438 62.074219 165.441406 61.046875 C 169.648438 60.359375 174.707031 60.371094 178.96875 61.074219 C 181.820312 61.546875 186.675781 62.742188 187.191406 65.453125 L 187.199219 65.496094 L 187.203125 65.542969 C 187.226562 66.613281 187.25 67.695312 187.273438 68.765625 L 200.511719 60.824219 C 200.667969 60.734375 200.757812 60.550781 200.742188 60.359375 C 200.722656 60.167969 200.605469 60.007812 200.433594 59.941406 "/></g></g></g><g clip-rule="nonzero" clip-path="url(#66ac8cf8ee)"><g clip-rule="nonzero" clip-path="url(#a323c994b7)"><g clip-rule="nonzero" clip-path="url(#08bb5c11bb)"><path style=" stroke:none;fill-rule:nonzero;fill:#ff9a12;fill-opacity:1;" d="M 150.367188 75.132812 L 149.457031 75.179688 L 148.953125 64.976562 L 149.859375 64.933594 L 150.367188 75.132812 "/></g></g></g><g clip-rule="nonzero" clip-path="url(#d08d99e049)"><g clip-rule="nonzero" clip-path="url(#6a240636f5)"><g clip-rule="nonzero" clip-path="url(#f276e6fde6)"><path style=" stroke:none;fill-rule:evenodd;fill:#ffb608;fill-opacity:1;" d="M 149.328125 76.453125 C 147.84375 78.761719 147.496094 81.804688 148.015625 85.414062 C 150.472656 87.21875 152.222656 87.03125 153.425781 85.320312 C 152.976562 78.324219 151.710938 74.921875 149.328125 76.453125 "/></g></g></g><g clip-rule="nonzero" clip-path="url(#f483647fd9)"><g clip-rule="nonzero" clip-path="url(#a33efa0066)"><g clip-rule="nonzero" clip-path="url(#6b1776086a)"><path style=" stroke:none;fill-rule:evenodd;fill:#e4a91d;fill-opacity:1;" d="M 149.605469 86.351562 L 148.929688 79.226562 L 148.695312 85.875 C 149.011719 86.066406 149.3125 86.226562 149.605469 86.351562 "/></g></g></g><g clip-rule="nonzero" clip-path="url(#2f9323b4ee)"><g clip-rule="nonzero" clip-path="url(#23f06af0ae)"><g clip-rule="nonzero" clip-path="url(#c0f2b90eaa)"><path style=" stroke:none;fill-rule:evenodd;fill:#e4a91d;fill-opacity:1;" d="M 150.558594 82.34375 L 150.78125 85.371094 L 150.066406 81.441406 L 150.667969 86.472656 C 150.960938 86.539062 151.238281 86.566406 151.496094 86.570312 L 151.523438 86.5625 L 150.558594 82.34375 "/></g></g></g><g clip-rule="nonzero" clip-path="url(#81ef220da8)"><g clip-rule="nonzero" clip-path="url(#d7459bf813)"><g clip-rule="nonzero" clip-path="url(#0970a7a4c4)"><path style=" stroke:none;fill-rule:evenodd;fill:#e4a91d;fill-opacity:1;" d="M 151.535156 79.65625 L 152.066406 86.492188 C 152.238281 86.417969 152.402344 86.328125 152.5625 86.214844 L 152.5 82.898438 L 152.039062 82.703125 L 151.535156 79.65625 "/></g></g></g><g clip-rule="nonzero" clip-path="url(#67f8d6f911)"><g clip-rule="nonzero" clip-path="url(#3d69df613c)"><g clip-rule="nonzero" clip-path="url(#91beddd289)"><path style=" stroke:none;fill-rule:evenodd;fill:#e4a91d;fill-opacity:1;" d="M 150.136719 73.660156 C 151.082031 73.640625 151.859375 74.351562 151.875 75.246094 C 151.894531 76.140625 151.140625 76.878906 150.195312 76.898438 C 149.25 76.914062 148.46875 76.203125 148.453125 75.308594 C 148.441406 74.414062 149.191406 73.675781 150.136719 73.660156 "/></g></g></g><g style="fill:#105ff8;fill-opacity:0.349;"><g transform="translate(154.019322, 110.657599)"><path style="stroke:none" d="M 21 -7.15625 C 22.207031 -7.15625 23.378906 -7.335938 24.515625 -7.703125 C 25.648438 -8.066406 26.484375 -8.414062 27.015625 -8.75 L 27.8125 -9.296875 L 31.1875 -2.5625 C 31.070312 -2.476562 30.914062 -2.363281 30.71875 -2.21875 C 30.519531 -2.082031 30.0625 -1.828125 29.34375 -1.453125 C 28.632812 -1.078125 27.867188 -0.75 27.046875 -0.46875 C 26.234375 -0.1875 25.164062 0.0625 23.84375 0.28125 C 22.53125 0.507812 21.175781 0.625 19.78125 0.625 C 16.550781 0.625 13.488281 -0.164062 10.59375 -1.75 C 7.707031 -3.332031 5.378906 -5.507812 3.609375 -8.28125 C 1.847656 -11.0625 0.96875 -14.066406 0.96875 -17.296875 C 0.96875 -19.734375 1.484375 -22.070312 2.515625 -24.3125 C 3.554688 -26.5625 4.9375 -28.484375 6.65625 -30.078125 C 8.382812 -31.679688 10.398438 -32.957031 12.703125 -33.90625 C 15.003906 -34.863281 17.363281 -35.34375 19.78125 -35.34375 C 22.019531 -35.34375 24.085938 -35.078125 25.984375 -34.546875 C 27.878906 -34.015625 29.21875 -33.484375 30 -32.953125 L 31.1875 -32.140625 L 27.8125 -25.421875 C 27.613281 -25.585938 27.316406 -25.789062 26.921875 -26.03125 C 26.535156 -26.269531 25.753906 -26.582031 24.578125 -26.96875 C 23.398438 -27.363281 22.207031 -27.5625 21 -27.5625 C 19.09375 -27.5625 17.378906 -27.25 15.859375 -26.625 C 14.347656 -26.007812 13.148438 -25.195312 12.265625 -24.1875 C 11.378906 -23.1875 10.703125 -22.101562 10.234375 -20.9375 C 9.773438 -19.769531 9.546875 -18.582031 9.546875 -17.375 C 9.546875 -14.738281 10.535156 -12.375 12.515625 -10.28125 C 14.492188 -8.195312 17.320312 -7.15625 21 -7.15625 Z M 21 -7.15625 "/></g></g><g style="fill:#105ff8;fill-opacity:0.349;"><g transform="translate(185.702075, 110.657599)"><path style="stroke:none" d="M 4.5625 -2.5625 C 2.164062 -4.695312 0.96875 -7.429688 0.96875 -10.765625 C 0.96875 -14.109375 2.210938 -16.851562 4.703125 -19 C 7.203125 -21.144531 10.289062 -22.21875 13.96875 -22.21875 C 17.582031 -22.21875 20.628906 -21.132812 23.109375 -18.96875 C 25.597656 -16.8125 26.84375 -14.078125 26.84375 -10.765625 C 26.84375 -7.460938 25.628906 -4.738281 23.203125 -2.59375 C 20.773438 -0.445312 17.695312 0.625 13.96875 0.625 C 10.09375 0.625 6.957031 -0.4375 4.5625 -2.5625 Z M 10.328125 -14.421875 C 9.359375 -13.472656 8.875 -12.253906 8.875 -10.765625 C 8.875 -9.285156 9.335938 -8.070312 10.265625 -7.125 C 11.191406 -6.1875 12.410156 -5.71875 13.921875 -5.71875 C 15.378906 -5.71875 16.578125 -6.191406 17.515625 -7.140625 C 18.460938 -8.097656 18.9375 -9.304688 18.9375 -10.765625 C 18.9375 -12.253906 18.453125 -13.472656 17.484375 -14.421875 C 16.515625 -15.378906 15.328125 -15.859375 13.921875 -15.859375 C 12.492188 -15.859375 11.296875 -15.378906 10.328125 -14.421875 Z M 10.328125 -14.421875 "/></g></g><g style="fill:#105ff8;fill-opacity:0.349;"><g transform="translate(213.429746, 110.657599)"><path style="stroke:none" d="M 2.53125 0 L 2.53125 -36.1875 L 9.96875 -36.1875 L 9.96875 0 Z M 2.53125 0 "/></g></g><g style="fill:#105ff8;fill-opacity:0.349;"><g transform="translate(225.926134, 110.657599)"><path style="stroke:none" d="M 2.53125 0 L 2.53125 -36.1875 L 9.96875 -36.1875 L 9.96875 0 Z M 2.53125 0 "/></g></g><g style="fill:#105ff8;fill-opacity:0.349;"><g transform="translate(238.422522, 110.657599)"><path style="stroke:none" d="M 24.359375 -9.765625 L 8.703125 -9.765625 C 8.703125 -8.242188 9.191406 -7.117188 10.171875 -6.390625 C 11.160156 -5.660156 12.226562 -5.296875 13.375 -5.296875 C 14.582031 -5.296875 15.535156 -5.457031 16.234375 -5.78125 C 16.941406 -6.101562 17.742188 -6.742188 18.640625 -7.703125 L 24.03125 -5 C 21.78125 -1.25 18.046875 0.625 12.828125 0.625 C 9.578125 0.625 6.785156 -0.488281 4.453125 -2.71875 C 2.128906 -4.945312 0.96875 -7.628906 0.96875 -10.765625 C 0.96875 -13.910156 2.128906 -16.601562 4.453125 -18.84375 C 6.785156 -21.09375 9.578125 -22.21875 12.828125 -22.21875 C 16.253906 -22.21875 19.039062 -21.226562 21.1875 -19.25 C 23.332031 -17.269531 24.40625 -14.441406 24.40625 -10.765625 C 24.40625 -10.265625 24.390625 -9.929688 24.359375 -9.765625 Z M 8.921875 -13.890625 L 17.125 -13.890625 C 16.957031 -15.003906 16.515625 -15.863281 15.796875 -16.46875 C 15.085938 -17.070312 14.171875 -17.375 13.046875 -17.375 C 11.804688 -17.375 10.820312 -17.050781 10.09375 -16.40625 C 9.363281 -15.757812 8.972656 -14.921875 8.921875 -13.890625 Z M 8.921875 -13.890625 "/></g></g><g style="fill:#105ff8;fill-opacity:0.349;"><g transform="translate(263.793969, 110.657599)"><path style="stroke:none" d="M 1.5625 5.296875 L 7.65625 2.3125 C 8.78125 4.164062 10.726562 5.09375 13.5 5.09375 C 14.789062 5.09375 15.988281 4.675781 17.09375 3.84375 C 18.207031 3.019531 18.765625 1.753906 18.765625 0.046875 L 18.765625 -1.5625 C 17.453125 -0.101562 15.097656 0.625 11.703125 0.625 C 8.585938 0.625 6.019531 -0.472656 4 -2.671875 C 1.976562 -4.867188 0.96875 -7.566406 0.96875 -10.765625 C 0.96875 -13.960938 1.976562 -16.671875 4 -18.890625 C 6.019531 -21.109375 8.585938 -22.21875 11.703125 -22.21875 C 14.472656 -22.21875 16.785156 -21.363281 18.640625 -19.65625 L 18.765625 -19.65625 L 18.765625 -21.59375 L 26.21875 -21.59375 L 26.21875 0.59375 C 26.21875 4.09375 25.050781 6.796875 22.71875 8.703125 C 20.394531 10.617188 17.320312 11.578125 13.5 11.578125 C 7.332031 11.578125 3.351562 9.484375 1.5625 5.296875 Z M 10.328125 -14.421875 C 9.359375 -13.472656 8.875 -12.253906 8.875 -10.765625 C 8.875 -9.285156 9.335938 -8.070312 10.265625 -7.125 C 11.191406 -6.1875 12.410156 -5.71875 13.921875 -5.71875 C 15.378906 -5.71875 16.578125 -6.191406 17.515625 -7.140625 C 18.460938 -8.097656 18.9375 -9.304688 18.9375 -10.765625 C 18.9375 -12.253906 18.453125 -13.472656 17.484375 -14.421875 C 16.515625 -15.378906 15.328125 -15.859375 13.921875 -15.859375 C 12.492188 -15.859375 11.296875 -15.378906 10.328125 -14.421875 Z M 10.328125 -14.421875 "/></g></g><g style="fill:#105ff8;fill-opacity:0.349;"><g transform="translate(292.321063, 110.657599)"><path style="stroke:none" d="M 24.359375 -9.765625 L 8.703125 -9.765625 C 8.703125 -8.242188 9.191406 -7.117188 10.171875 -6.390625 C 11.160156 -5.660156 12.226562 -5.296875 13.375 -5.296875 C 14.582031 -5.296875 15.535156 -5.457031 16.234375 -5.78125 C 16.941406 -6.101562 17.742188 -6.742188 18.640625 -7.703125 L 24.03125 -5 C 21.78125 -1.25 18.046875 0.625 12.828125 0.625 C 9.578125 0.625 6.785156 -0.488281 4.453125 -2.71875 C 2.128906 -4.945312 0.96875 -7.628906 0.96875 -10.765625 C 0.96875 -13.910156 2.128906 -16.601562 4.453125 -18.84375 C 6.785156 -21.09375 9.578125 -22.21875 12.828125 -22.21875 C 16.253906 -22.21875 19.039062 -21.226562 21.1875 -19.25 C 23.332031 -17.269531 24.40625 -14.441406 24.40625 -10.765625 C 24.40625 -10.265625 24.390625 -9.929688 24.359375 -9.765625 Z M 8.921875 -13.890625 L 17.125 -13.890625 C 16.957031 -15.003906 16.515625 -15.863281 15.796875 -16.46875 C 15.085938 -17.070312 14.171875 -17.375 13.046875 -17.375 C 11.804688 -17.375 10.820312 -17.050781 10.09375 -16.40625 C 9.363281 -15.757812 8.972656 -14.921875 8.921875 -13.890625 Z M 8.921875 -13.890625 "/></g></g><g style="fill:#105ff8;fill-opacity:1;"><g transform="translate(152.159741, 108.798024)"><path style="stroke:none" d="M 21 -7.15625 C 22.207031 -7.15625 23.378906 -7.335938 24.515625 -7.703125 C 25.648438 -8.066406 26.484375 -8.414062 27.015625 -8.75 L 27.8125 -9.296875 L 31.1875 -2.5625 C 31.070312 -2.476562 30.914062 -2.363281 30.71875 -2.21875 C 30.519531 -2.082031 30.0625 -1.828125 29.34375 -1.453125 C 28.632812 -1.078125 27.867188 -0.75 27.046875 -0.46875 C 26.234375 -0.1875 25.164062 0.0625 23.84375 0.28125 C 22.53125 0.507812 21.175781 0.625 19.78125 0.625 C 16.550781 0.625 13.488281 -0.164062 10.59375 -1.75 C 7.707031 -3.332031 5.378906 -5.507812 3.609375 -8.28125 C 1.847656 -11.0625 0.96875 -14.066406 0.96875 -17.296875 C 0.96875 -19.734375 1.484375 -22.070312 2.515625 -24.3125 C 3.554688 -26.5625 4.9375 -28.484375 6.65625 -30.078125 C 8.382812 -31.679688 10.398438 -32.957031 12.703125 -33.90625 C 15.003906 -34.863281 17.363281 -35.34375 19.78125 -35.34375 C 22.019531 -35.34375 24.085938 -35.078125 25.984375 -34.546875 C 27.878906 -34.015625 29.21875 -33.484375 30 -32.953125 L 31.1875 -32.140625 L 27.8125 -25.421875 C 27.613281 -25.585938 27.316406 -25.789062 26.921875 -26.03125 C 26.535156 -26.269531 25.753906 -26.582031 24.578125 -26.96875 C 23.398438 -27.363281 22.207031 -27.5625 21 -27.5625 C 19.09375 -27.5625 17.378906 -27.25 15.859375 -26.625 C 14.347656 -26.007812 13.148438 -25.195312 12.265625 -24.1875 C 11.378906 -23.1875 10.703125 -22.101562 10.234375 -20.9375 C 9.773438 -19.769531 9.546875 -18.582031 9.546875 -17.375 C 9.546875 -14.738281 10.535156 -12.375 12.515625 -10.28125 C 14.492188 -8.195312 17.320312 -7.15625 21 -7.15625 Z M 21 -7.15625 "/></g></g><g style="fill:#105ff8;fill-opacity:1;"><g transform="translate(183.842493, 108.798024)"><path style="stroke:none" d="M 4.5625 -2.5625 C 2.164062 -4.695312 0.96875 -7.429688 0.96875 -10.765625 C 0.96875 -14.109375 2.210938 -16.851562 4.703125 -19 C 7.203125 -21.144531 10.289062 -22.21875 13.96875 -22.21875 C 17.582031 -22.21875 20.628906 -21.132812 23.109375 -18.96875 C 25.597656 -16.8125 26.84375 -14.078125 26.84375 -10.765625 C 26.84375 -7.460938 25.628906 -4.738281 23.203125 -2.59375 C 20.773438 -0.445312 17.695312 0.625 13.96875 0.625 C 10.09375 0.625 6.957031 -0.4375 4.5625 -2.5625 Z M 10.328125 -14.421875 C 9.359375 -13.472656 8.875 -12.253906 8.875 -10.765625 C 8.875 -9.285156 9.335938 -8.070312 10.265625 -7.125 C 11.191406 -6.1875 12.410156 -5.71875 13.921875 -5.71875 C 15.378906 -5.71875 16.578125 -6.191406 17.515625 -7.140625 C 18.460938 -8.097656 18.9375 -9.304688 18.9375 -10.765625 C 18.9375 -12.253906 18.453125 -13.472656 17.484375 -14.421875 C 16.515625 -15.378906 15.328125 -15.859375 13.921875 -15.859375 C 12.492188 -15.859375 11.296875 -15.378906 10.328125 -14.421875 Z M 10.328125 -14.421875 "/></g></g><g style="fill:#105ff8;fill-opacity:1;"><g transform="translate(211.570164, 108.798024)"><path style="stroke:none" d="M 2.53125 0 L 2.53125 -36.1875 L 9.96875 -36.1875 L 9.96875 0 Z M 2.53125 0 "/></g></g><g style="fill:#105ff8;fill-opacity:1;"><g transform="translate(224.066552, 108.798024)"><path style="stroke:none" d="M 2.53125 0 L 2.53125 -36.1875 L 9.96875 -36.1875 L 9.96875 0 Z M 2.53125 0 "/></g></g><g style="fill:#105ff8;fill-opacity:1;"><g transform="translate(236.56294, 108.798024)"><path style="stroke:none" d="M 24.359375 -9.765625 L 8.703125 -9.765625 C 8.703125 -8.242188 9.191406 -7.117188 10.171875 -6.390625 C 11.160156 -5.660156 12.226562 -5.296875 13.375 -5.296875 C 14.582031 -5.296875 15.535156 -5.457031 16.234375 -5.78125 C 16.941406 -6.101562 17.742188 -6.742188 18.640625 -7.703125 L 24.03125 -5 C 21.78125 -1.25 18.046875 0.625 12.828125 0.625 C 9.578125 0.625 6.785156 -0.488281 4.453125 -2.71875 C 2.128906 -4.945312 0.96875 -7.628906 0.96875 -10.765625 C 0.96875 -13.910156 2.128906 -16.601562 4.453125 -18.84375 C 6.785156 -21.09375 9.578125 -22.21875 12.828125 -22.21875 C 16.253906 -22.21875 19.039062 -21.226562 21.1875 -19.25 C 23.332031 -17.269531 24.40625 -14.441406 24.40625 -10.765625 C 24.40625 -10.265625 24.390625 -9.929688 24.359375 -9.765625 Z M 8.921875 -13.890625 L 17.125 -13.890625 C 16.957031 -15.003906 16.515625 -15.863281 15.796875 -16.46875 C 15.085938 -17.070312 14.171875 -17.375 13.046875 -17.375 C 11.804688 -17.375 10.820312 -17.050781 10.09375 -16.40625 C 9.363281 -15.757812 8.972656 -14.921875 8.921875 -13.890625 Z M 8.921875 -13.890625 "/></g></g><g style="fill:#105ff8;fill-opacity:1;"><g transform="translate(261.934387, 108.798024)"><path style="stroke:none" d="M 1.5625 5.296875 L 7.65625 2.3125 C 8.78125 4.164062 10.726562 5.09375 13.5 5.09375 C 14.789062 5.09375 15.988281 4.675781 17.09375 3.84375 C 18.207031 3.019531 18.765625 1.753906 18.765625 0.046875 L 18.765625 -1.5625 C 17.453125 -0.101562 15.097656 0.625 11.703125 0.625 C 8.585938 0.625 6.019531 -0.472656 4 -2.671875 C 1.976562 -4.867188 0.96875 -7.566406 0.96875 -10.765625 C 0.96875 -13.960938 1.976562 -16.671875 4 -18.890625 C 6.019531 -21.109375 8.585938 -22.21875 11.703125 -22.21875 C 14.472656 -22.21875 16.785156 -21.363281 18.640625 -19.65625 L 18.765625 -19.65625 L 18.765625 -21.59375 L 26.21875 -21.59375 L 26.21875 0.59375 C 26.21875 4.09375 25.050781 6.796875 22.71875 8.703125 C 20.394531 10.617188 17.320312 11.578125 13.5 11.578125 C 7.332031 11.578125 3.351562 9.484375 1.5625 5.296875 Z M 10.328125 -14.421875 C 9.359375 -13.472656 8.875 -12.253906 8.875 -10.765625 C 8.875 -9.285156 9.335938 -8.070312 10.265625 -7.125 C 11.191406 -6.1875 12.410156 -5.71875 13.921875 -5.71875 C 15.378906 -5.71875 16.578125 -6.191406 17.515625 -7.140625 C 18.460938 -8.097656 18.9375 -9.304688 18.9375 -10.765625 C 18.9375 -12.253906 18.453125 -13.472656 17.484375 -14.421875 C 16.515625 -15.378906 15.328125 -15.859375 13.921875 -15.859375 C 12.492188 -15.859375 11.296875 -15.378906 10.328125 -14.421875 Z M 10.328125 -14.421875 "/></g></g><g style="fill:#105ff8;fill-opacity:1;"><g transform="translate(290.461481, 108.798024)"><path style="stroke:none" d="M 24.359375 -9.765625 L 8.703125 -9.765625 C 8.703125 -8.242188 9.191406 -7.117188 10.171875 -6.390625 C 11.160156 -5.660156 12.226562 -5.296875 13.375 -5.296875 C 14.582031 -5.296875 15.535156 -5.457031 16.234375 -5.78125 C 16.941406 -6.101562 17.742188 -6.742188 18.640625 -7.703125 L 24.03125 -5 C 21.78125 -1.25 18.046875 0.625 12.828125 0.625 C 9.578125 0.625 6.785156 -0.488281 4.453125 -2.71875 C 2.128906 -4.945312 0.96875 -7.628906 0.96875 -10.765625 C 0.96875 -13.910156 2.128906 -16.601562 4.453125 -18.84375 C 6.785156 -21.09375 9.578125 -22.21875 12.828125 -22.21875 C 16.253906 -22.21875 19.039062 -21.226562 21.1875 -19.25 C 23.332031 -17.269531 24.40625 -14.441406 24.40625 -10.765625 C 24.40625 -10.265625 24.390625 -9.929688 24.359375 -9.765625 Z M 8.921875 -13.890625 L 17.125 -13.890625 C 16.957031 -15.003906 16.515625 -15.863281 15.796875 -16.46875 C 15.085938 -17.070312 14.171875 -17.375 13.046875 -17.375 C 11.804688 -17.375 10.820312 -17.050781 10.09375 -16.40625 C 9.363281 -15.757812 8.972656 -14.921875 8.921875 -13.890625 Z M 8.921875 -13.890625 "/></g></g><g style="fill:#000000;fill-opacity:0.502;"><g transform="translate(170.687787, 126.69402)"><path style="stroke:none" d="M 7.140625 -12.4375 C 8.953125 -12.4375 10.382812 -11.984375 11.4375 -11.078125 C 12.488281 -10.171875 13.015625 -8.875 13.015625 -7.1875 L 9.28125 -7.1875 C 9.28125 -7.90625 9.09375 -8.46875 8.71875 -8.875 C 8.34375 -9.289062 7.8125 -9.5 7.125 -9.5 C 6.332031 -9.5 5.75 -9.25 5.375 -8.75 C 5 -8.257812 4.8125 -7.570312 4.8125 -6.6875 L 4.8125 -5.546875 C 4.8125 -4.671875 5 -3.976562 5.375 -3.46875 C 5.75 -2.96875 6.320312 -2.71875 7.09375 -2.71875 C 7.84375 -2.71875 8.410156 -2.910156 8.796875 -3.296875 C 9.191406 -3.691406 9.390625 -4.242188 9.390625 -4.953125 L 13.015625 -4.953125 C 13.015625 -3.285156 12.503906 -2.003906 11.484375 -1.109375 C 10.460938 -0.222656 9.015625 0.21875 7.140625 0.21875 C 5.054688 0.21875 3.476562 -0.3125 2.40625 -1.375 C 1.332031 -2.445312 0.796875 -4.023438 0.796875 -6.109375 C 0.796875 -8.191406 1.332031 -9.765625 2.40625 -10.828125 C 3.476562 -11.898438 5.054688 -12.4375 7.140625 -12.4375 Z M 7.140625 -12.4375 "/></g></g><g style="fill:#000000;fill-opacity:0.502;"><g transform="translate(184.509095, 126.69402)"><path style="stroke:none" d="M 9.5 0 L 8.984375 -1.71875 L 4.703125 -1.71875 L 4.1875 0 L 0.171875 0 L 4.640625 -12.21875 L 9.203125 -12.21875 L 13.65625 0 Z M 5.53125 -4.453125 L 8.171875 -4.453125 L 6.890625 -8.8125 L 6.828125 -8.8125 Z M 5.53125 -4.453125 "/></g></g><g style="fill:#000000;fill-opacity:0.502;"><g transform="translate(198.330403, 126.69402)"><path style="stroke:none" d="M 12.921875 -8.46875 C 12.921875 -7.726562 12.71875 -7.054688 12.3125 -6.453125 C 11.90625 -5.847656 11.316406 -5.398438 10.546875 -5.109375 L 13.265625 0 L 8.859375 0 L 6.703125 -4.453125 L 5.234375 -4.453125 L 5.234375 0 L 1.3125 0 L 1.3125 -12.21875 L 8.796875 -12.21875 C 9.671875 -12.21875 10.414062 -12.046875 11.03125 -11.703125 C 11.65625 -11.367188 12.125 -10.914062 12.4375 -10.34375 C 12.757812 -9.769531 12.921875 -9.144531 12.921875 -8.46875 Z M 8.921875 -8.3125 C 8.921875 -8.632812 8.8125 -8.898438 8.59375 -9.109375 C 8.382812 -9.328125 8.125 -9.4375 7.8125 -9.4375 L 5.234375 -9.4375 L 5.234375 -7.171875 L 7.8125 -7.171875 C 8.125 -7.171875 8.382812 -7.28125 8.59375 -7.5 C 8.8125 -7.71875 8.921875 -7.988281 8.921875 -8.3125 Z M 8.921875 -8.3125 "/></g></g><g style="fill:#000000;fill-opacity:0.502;"><g transform="translate(212.15171, 126.69402)"><path style="stroke:none" d="M 1.3125 -12.21875 L 11.890625 -12.21875 L 11.890625 -9.296875 L 5.234375 -9.296875 L 5.234375 -7.609375 L 10.921875 -7.609375 L 10.921875 -4.796875 L 5.234375 -4.796875 L 5.234375 -2.9375 L 12.015625 -2.9375 L 12.015625 0 L 1.3125 0 Z M 1.3125 -12.21875 "/></g></g><g style="fill:#000000;fill-opacity:0.502;"><g transform="translate(224.97817, 126.69402)"><path style="stroke:none" d="M 1.3125 -12.21875 L 11.890625 -12.21875 L 11.890625 -9.296875 L 5.234375 -9.296875 L 5.234375 -7.609375 L 10.921875 -7.609375 L 10.921875 -4.796875 L 5.234375 -4.796875 L 5.234375 -2.9375 L 12.015625 -2.9375 L 12.015625 0 L 1.3125 0 Z M 1.3125 -12.21875 "/></g></g><g style="fill:#000000;fill-opacity:0.502;"><g transform="translate(237.804629, 126.69402)"><path style="stroke:none" d="M 12.921875 -8.46875 C 12.921875 -7.726562 12.71875 -7.054688 12.3125 -6.453125 C 11.90625 -5.847656 11.316406 -5.398438 10.546875 -5.109375 L 13.265625 0 L 8.859375 0 L 6.703125 -4.453125 L 5.234375 -4.453125 L 5.234375 0 L 1.3125 0 L 1.3125 -12.21875 L 8.796875 -12.21875 C 9.671875 -12.21875 10.414062 -12.046875 11.03125 -11.703125 C 11.65625 -11.367188 12.125 -10.914062 12.4375 -10.34375 C 12.757812 -9.769531 12.921875 -9.144531 12.921875 -8.46875 Z M 8.921875 -8.3125 C 8.921875 -8.632812 8.8125 -8.898438 8.59375 -9.109375 C 8.382812 -9.328125 8.125 -9.4375 7.8125 -9.4375 L 5.234375 -9.4375 L 5.234375 -7.171875 L 7.8125 -7.171875 C 8.125 -7.171875 8.382812 -7.28125 8.59375 -7.5 C 8.8125 -7.71875 8.921875 -7.988281 8.921875 -8.3125 Z M 8.921875 -8.3125 "/></g></g><g style="fill:#000000;fill-opacity:1;"><g transform="translate(169.902207, 125.908433)"><path style="stroke:none" d="M 7.140625 -12.4375 C 8.953125 -12.4375 10.382812 -11.984375 11.4375 -11.078125 C 12.488281 -10.171875 13.015625 -8.875 13.015625 -7.1875 L 9.28125 -7.1875 C 9.28125 -7.90625 9.09375 -8.46875 8.71875 -8.875 C 8.34375 -9.289062 7.8125 -9.5 7.125 -9.5 C 6.332031 -9.5 5.75 -9.25 5.375 -8.75 C 5 -8.257812 4.8125 -7.570312 4.8125 -6.6875 L 4.8125 -5.546875 C 4.8125 -4.671875 5 -3.976562 5.375 -3.46875 C 5.75 -2.96875 6.320312 -2.71875 7.09375 -2.71875 C 7.84375 -2.71875 8.410156 -2.910156 8.796875 -3.296875 C 9.191406 -3.691406 9.390625 -4.242188 9.390625 -4.953125 L 13.015625 -4.953125 C 13.015625 -3.285156 12.503906 -2.003906 11.484375 -1.109375 C 10.460938 -0.222656 9.015625 0.21875 7.140625 0.21875 C 5.054688 0.21875 3.476562 -0.3125 2.40625 -1.375 C 1.332031 -2.445312 0.796875 -4.023438 0.796875 -6.109375 C 0.796875 -8.191406 1.332031 -9.765625 2.40625 -10.828125 C 3.476562 -11.898438 5.054688 -12.4375 7.140625 -12.4375 Z M 7.140625 -12.4375 "/></g></g><g style="fill:#000000;fill-opacity:1;"><g transform="translate(183.723515, 125.908433)"><path style="stroke:none" d="M 9.5 0 L 8.984375 -1.71875 L 4.703125 -1.71875 L 4.1875 0 L 0.171875 0 L 4.640625 -12.21875 L 9.203125 -12.21875 L 13.65625 0 Z M 5.53125 -4.453125 L 8.171875 -4.453125 L 6.890625 -8.8125 L 6.828125 -8.8125 Z M 5.53125 -4.453125 "/></g></g><g style="fill:#000000;fill-opacity:1;"><g transform="translate(197.544822, 125.908433)"><path style="stroke:none" d="M 12.921875 -8.46875 C 12.921875 -7.726562 12.71875 -7.054688 12.3125 -6.453125 C 11.90625 -5.847656 11.316406 -5.398438 10.546875 -5.109375 L 13.265625 0 L 8.859375 0 L 6.703125 -4.453125 L 5.234375 -4.453125 L 5.234375 0 L 1.3125 0 L 1.3125 -12.21875 L 8.796875 -12.21875 C 9.671875 -12.21875 10.414062 -12.046875 11.03125 -11.703125 C 11.65625 -11.367188 12.125 -10.914062 12.4375 -10.34375 C 12.757812 -9.769531 12.921875 -9.144531 12.921875 -8.46875 Z M 8.921875 -8.3125 C 8.921875 -8.632812 8.8125 -8.898438 8.59375 -9.109375 C 8.382812 -9.328125 8.125 -9.4375 7.8125 -9.4375 L 5.234375 -9.4375 L 5.234375 -7.171875 L 7.8125 -7.171875 C 8.125 -7.171875 8.382812 -7.28125 8.59375 -7.5 C 8.8125 -7.71875 8.921875 -7.988281 8.921875 -8.3125 Z M 8.921875 -8.3125 "/></g></g><g style="fill:#000000;fill-opacity:1;"><g transform="translate(211.36613, 125.908433)"><path style="stroke:none" d="M 1.3125 -12.21875 L 11.890625 -12.21875 L 11.890625 -9.296875 L 5.234375 -9.296875 L 5.234375 -7.609375 L 10.921875 -7.609375 L 10.921875 -4.796875 L 5.234375 -4.796875 L 5.234375 -2.9375 L 12.015625 -2.9375 L 12.015625 0 L 1.3125 0 Z M 1.3125 -12.21875 "/></g></g><g style="fill:#000000;fill-opacity:1;"><g transform="translate(224.192589, 125.908433)"><path style="stroke:none" d="M 1.3125 -12.21875 L 11.890625 -12.21875 L 11.890625 -9.296875 L 5.234375 -9.296875 L 5.234375 -7.609375 L 10.921875 -7.609375 L 10.921875 -4.796875 L 5.234375 -4.796875 L 5.234375 -2.9375 L 12.015625 -2.9375 L 12.015625 0 L 1.3125 0 Z M 1.3125 -12.21875 "/></g></g><g style="fill:#000000;fill-opacity:1;"><g transform="translate(237.019049, 125.908433)"><path style="stroke:none" d="M 12.921875 -8.46875 C 12.921875 -7.726562 12.71875 -7.054688 12.3125 -6.453125 C 11.90625 -5.847656 11.316406 -5.398438 10.546875 -5.109375 L 13.265625 0 L 8.859375 0 L 6.703125 -4.453125 L 5.234375 -4.453125 L 5.234375 0 L 1.3125 0 L 1.3125 -12.21875 L 8.796875 -12.21875 C 9.671875 -12.21875 10.414062 -12.046875 11.03125 -11.703125 C 11.65625 -11.367188 12.125 -10.914062 12.4375 -10.34375 C 12.757812 -9.769531 12.921875 -9.144531 12.921875 -8.46875 Z M 8.921875 -8.3125 C 8.921875 -8.632812 8.8125 -8.898438 8.59375 -9.109375 C 8.382812 -9.328125 8.125 -9.4375 7.8125 -9.4375 L 5.234375 -9.4375 L 5.234375 -7.171875 L 7.8125 -7.171875 C 8.125 -7.171875 8.382812 -7.28125 8.59375 -7.5 C 8.8125 -7.71875 8.921875 -7.988281 8.921875 -8.3125 Z M 8.921875 -8.3125 "/></g></g></g></svg>