<svg xmlns="http://www.w3.org/2000/svg" xmlns:xlink="http://www.w3.org/1999/xlink" width="194" zoomAndPan="magnify" viewBox="360 70 65.5 12.249979" height="223" preserveAspectRatio="xMidYMid meet" version="1.2"><defs><clipPath id="4d9832aa3e"><path d="M 375 60 L 406 60 L 406 75 L 375 75 Z M 375 60 "/></clipPath><clipPath id="406f8faaea"><path d="M 359.898438 49.5625 L 418.980469 45.558594 L 421.515625 82.957031 L 362.429688 86.957031 Z M 359.898438 49.5625 "/></clipPath><clipPath id="fb39bb6b56"><path d="M 359.898438 49.5625 L 418.980469 45.558594 L 421.515625 82.957031 L 362.429688 86.957031 Z M 359.898438 49.5625 "/></clipPath><clipPath id="080709276b"><path d="M 360 47 L 420 47 L 420 70 L 360 70 Z M 360 47 "/></clipPath><clipPath id="7809b60250"><path d="M 359.898438 49.5625 L 418.980469 45.558594 L 421.515625 82.957031 L 362.429688 86.957031 Z M 359.898438 49.5625 "/></clipPath><clipPath id="034c000bb1"><path d="M 359.898438 49.5625 L 418.980469 45.558594 L 421.515625 82.957031 L 362.429688 86.957031 Z M 359.898438 49.5625 "/></clipPath><clipPath id="d4d34b889d"><path d="M 367 64 L 370 64 L 370 75 L 367 75 Z M 367 64 "/></clipPath><clipPath id="42cd4de16d"><path d="M 359.898438 49.5625 L 418.980469 45.558594 L 421.515625 82.957031 L 362.429688 86.957031 Z M 359.898438 49.5625 "/></clipPath><clipPath id="ce4b12c535"><path d="M 359.898438 49.5625 L 418.980469 45.558594 L 421.515625 82.957031 L 362.429688 86.957031 Z M 359.898438 49.5625 "/></clipPath><clipPath id="a384356100"><path d="M 366 75 L 373 75 L 373 86 L 366 86 Z M 366 75 "/></clipPath><clipPath id="70d9b0284a"><path d="M 359.898438 49.5625 L 418.980469 45.558594 L 421.515625 82.957031 L 362.429688 86.957031 Z M 359.898438 49.5625 "/></clipPath><clipPath id="7f92c942a9"><path d="M 359.898438 49.5625 L 418.980469 45.558594 L 421.515625 82.957031 L 362.429688 86.957031 Z M 359.898438 49.5625 "/></clipPath><clipPath id="7843e1d004"><path d="M 367 78 L 369 78 L 369 86 L 367 86 Z M 367 78 "/></clipPath><clipPath id="857e1c3b25"><path d="M 359.898438 49.5625 L 418.980469 45.558594 L 421.515625 82.957031 L 362.429688 86.957031 Z M 359.898438 49.5625 "/></clipPath><clipPath id="6428995ac1"><path d="M 359.898438 49.5625 L 418.980469 45.558594 L 421.515625 82.957031 L 362.429688 86.957031 Z M 359.898438 49.5625 "/></clipPath><clipPath id="8c66bfe08a"><path d="M 369 80 L 371 80 L 371 86 L 369 86 Z M 369 80 "/></clipPath><clipPath id="3cd00c462b"><path d="M 359.898438 49.5625 L 418.980469 45.558594 L 421.515625 82.957031 L 362.429688 86.957031 Z M 359.898438 49.5625 "/></clipPath><clipPath id="172482834d"><path d="M 359.898438 49.5625 L 418.980469 45.558594 L 421.515625 82.957031 L 362.429688 86.957031 Z M 359.898438 49.5625 "/></clipPath><clipPath id="3d648a277f"><path d="M 370 78 L 372 78 L 372 86 L 370 86 Z M 370 78 "/></clipPath><clipPath id="ab111eef53"><path d="M 359.898438 49.5625 L 418.980469 45.558594 L 421.515625 82.957031 L 362.429688 86.957031 Z M 359.898438 49.5625 "/></clipPath><clipPath id="338d88601f"><path d="M 359.898438 49.5625 L 418.980469 45.558594 L 421.515625 82.957031 L 362.429688 86.957031 Z M 359.898438 49.5625 "/></clipPath><clipPath id="4112c71451"><path d="M 367 72 L 371 72 L 371 77 L 367 77 Z M 367 72 "/></clipPath><clipPath id="917ff6af13"><path d="M 359.898438 49.5625 L 418.980469 45.558594 L 421.515625 82.957031 L 362.429688 86.957031 Z M 359.898438 49.5625 "/></clipPath><clipPath id="2f9d8f579f"><path d="M 359.898438 49.5625 L 418.980469 45.558594 L 421.515625 82.957031 L 362.429688 86.957031 Z M 359.898438 49.5625 "/></clipPath></defs><g id="c95c41df52"><g clip-rule="nonzero" clip-path="url(#4d9832aa3e)"><g clip-rule="nonzero" clip-path="url(#406f8faaea)"><g clip-rule="nonzero" clip-path="url(#fb39bb6b56)"><path style=" stroke:none;fill-rule:nonzero;fill:#000000;fill-opacity:1;" d="M 384.566406 71.382812 C 388.710938 70.675781 393.695312 70.660156 397.902344 71.347656 C 400.351562 71.75 404.304688 72.691406 405.632812 74.71875 C 405.617188 74.597656 405.585938 74.484375 405.53125 74.375 C 405.496094 72.773438 405.457031 71.046875 405.417969 69.273438 C 405.417969 69.273438 405.414062 69.273438 405.414062 69.273438 C 405.382812 67.867188 405.351562 66.433594 405.316406 65.011719 C 404.992188 63.546875 402.160156 62.203125 397.898438 61.5 C 393.71875 60.808594 388.761719 60.796875 384.636719 61.46875 C 380.082031 62.214844 377.015625 63.691406 375.980469 65.636719 C 375.960938 65.8125 375.917969 66.238281 375.941406 66.660156 C 375.996094 67.6875 376.0625 68.9375 376.125 70.207031 C 376.117188 70.203125 376.109375 70.203125 376.105469 70.199219 C 376.203125 72.25 376.269531 73.847656 376.296875 74.875 C 377.558594 73.554688 379.972656 72.171875 384.566406 71.382812 "/></g></g></g><g clip-rule="nonzero" clip-path="url(#080709276b)"><g clip-rule="nonzero" clip-path="url(#7809b60250)"><g clip-rule="nonzero" clip-path="url(#034c000bb1)"><path style=" stroke:none;fill-rule:nonzero;fill:#000000;fill-opacity:1;" d="M 419.539062 59.140625 L 389.15625 47.636719 C 389.039062 47.589844 388.910156 47.597656 388.800781 47.660156 L 361.066406 62.679688 C 360.90625 62.769531 360.808594 62.949219 360.820312 63.140625 C 360.832031 63.335938 360.949219 63.503906 361.117188 63.574219 L 375.097656 69.242188 C 375.054688 68.394531 375.007812 67.484375 374.957031 66.515625 C 374.921875 65.855469 375.015625 65.210938 375.019531 65.183594 L 375.03125 65.097656 L 375.070312 65.019531 C 375.875 63.410156 378.160156 61.277344 384.46875 60.246094 C 388.6875 59.558594 393.753906 59.570312 398.027344 60.277344 C 400.882812 60.75 405.75 61.949219 406.265625 64.660156 L 406.273438 64.707031 L 406.273438 64.753906 C 406.300781 65.828125 406.324219 66.910156 406.347656 67.984375 L 419.617188 60.027344 C 419.769531 59.933594 419.859375 59.75 419.84375 59.558594 C 419.828125 59.367188 419.707031 59.203125 419.539062 59.140625 "/></g></g></g><g clip-rule="nonzero" clip-path="url(#d4d34b889d)"><g clip-rule="nonzero" clip-path="url(#42cd4de16d)"><g clip-rule="nonzero" clip-path="url(#ce4b12c535)"><path style=" stroke:none;fill-rule:nonzero;fill:#ff9a12;fill-opacity:1;" d="M 369.359375 74.363281 L 368.449219 74.410156 L 367.941406 64.183594 L 368.855469 64.140625 L 369.359375 74.363281 "/></g></g></g><g clip-rule="nonzero" clip-path="url(#a384356100)"><g clip-rule="nonzero" clip-path="url(#70d9b0284a)"><g clip-rule="nonzero" clip-path="url(#7f92c942a9)"><path style=" stroke:none;fill-rule:evenodd;fill:#ffb608;fill-opacity:1;" d="M 368.320312 75.683594 C 366.835938 78 366.484375 81.050781 367.007812 84.667969 C 369.46875 86.472656 371.21875 86.285156 372.425781 84.570312 C 371.976562 77.5625 370.707031 74.148438 368.320312 75.683594 "/></g></g></g><g clip-rule="nonzero" clip-path="url(#7843e1d004)"><g clip-rule="nonzero" clip-path="url(#857e1c3b25)"><g clip-rule="nonzero" clip-path="url(#6428995ac1)"><path style=" stroke:none;fill-rule:evenodd;fill:#e4a91d;fill-opacity:1;" d="M 368.597656 85.605469 L 367.921875 78.464844 L 367.6875 85.128906 C 368.003906 85.320312 368.304688 85.480469 368.597656 85.605469 "/></g></g></g><g clip-rule="nonzero" clip-path="url(#8c66bfe08a)"><g clip-rule="nonzero" clip-path="url(#3cd00c462b)"><g clip-rule="nonzero" clip-path="url(#172482834d)"><path style=" stroke:none;fill-rule:evenodd;fill:#e4a91d;fill-opacity:1;" d="M 369.554688 81.589844 L 369.777344 84.625 L 369.058594 80.6875 L 369.664062 85.726562 C 369.957031 85.792969 370.234375 85.820312 370.496094 85.824219 L 370.519531 85.820312 L 369.554688 81.589844 "/></g></g></g><g clip-rule="nonzero" clip-path="url(#3d648a277f)"><g clip-rule="nonzero" clip-path="url(#ab111eef53)"><g clip-rule="nonzero" clip-path="url(#338d88601f)"><path style=" stroke:none;fill-rule:evenodd;fill:#e4a91d;fill-opacity:1;" d="M 370.535156 78.894531 L 371.066406 85.746094 C 371.238281 85.671875 371.402344 85.582031 371.558594 85.46875 L 371.5 82.144531 L 371.035156 81.949219 L 370.535156 78.894531 "/></g></g></g><g clip-rule="nonzero" clip-path="url(#4112c71451)"><g clip-rule="nonzero" clip-path="url(#917ff6af13)"><g clip-rule="nonzero" clip-path="url(#2f9d8f579f)"><path style=" stroke:none;fill-rule:evenodd;fill:#e4a91d;fill-opacity:1;" d="M 369.132812 72.886719 C 370.078125 72.867188 370.859375 73.582031 370.875 74.476562 C 370.890625 75.375 370.136719 76.113281 369.191406 76.132812 C 368.242188 76.148438 367.460938 75.433594 367.445312 74.539062 C 367.429688 73.640625 368.183594 72.902344 369.132812 72.886719 "/></g></g></g><g style="fill:#105ff8;fill-opacity:0.349;"><g transform="translate(372.704397, 110.895752)"><path style="stroke:none" d="M 21.046875 -7.171875 C 22.253906 -7.171875 23.425781 -7.351562 24.5625 -7.71875 C 25.695312 -8.082031 26.535156 -8.429688 27.078125 -8.765625 L 27.875 -9.3125 L 31.25 -2.578125 C 31.132812 -2.492188 30.976562 -2.378906 30.78125 -2.234375 C 30.582031 -2.097656 30.125 -1.835938 29.40625 -1.453125 C 28.695312 -1.078125 27.929688 -0.75 27.109375 -0.46875 C 26.296875 -0.1875 25.226562 0.0625 23.90625 0.28125 C 22.582031 0.507812 21.222656 0.625 19.828125 0.625 C 16.585938 0.625 13.519531 -0.164062 10.625 -1.75 C 7.726562 -3.34375 5.394531 -5.53125 3.625 -8.3125 C 1.851562 -11.09375 0.96875 -14.097656 0.96875 -17.328125 C 0.96875 -19.773438 1.488281 -22.125 2.53125 -24.375 C 3.570312 -26.625 4.957031 -28.550781 6.6875 -30.15625 C 8.414062 -31.757812 10.429688 -33.035156 12.734375 -33.984375 C 15.035156 -34.941406 17.398438 -35.421875 19.828125 -35.421875 C 22.066406 -35.421875 24.132812 -35.15625 26.03125 -34.625 C 27.9375 -34.09375 29.28125 -33.554688 30.0625 -33.015625 L 31.25 -32.21875 L 27.875 -25.46875 C 27.675781 -25.632812 27.378906 -25.835938 26.984375 -26.078125 C 26.597656 -26.316406 25.8125 -26.632812 24.625 -27.03125 C 23.445312 -27.425781 22.253906 -27.625 21.046875 -27.625 C 19.128906 -27.625 17.410156 -27.3125 15.890625 -26.6875 C 14.378906 -26.070312 13.179688 -25.257812 12.296875 -24.25 C 11.410156 -23.238281 10.734375 -22.148438 10.265625 -20.984375 C 9.804688 -19.816406 9.578125 -18.628906 9.578125 -17.421875 C 9.578125 -14.773438 10.566406 -12.40625 12.546875 -10.3125 C 14.523438 -8.21875 17.359375 -7.171875 21.046875 -7.171875 Z M 21.046875 -7.171875 "/></g></g><g style="fill:#105ff8;fill-opacity:1;"><g transform="translate(370.840812, 109.032175)"><path style="stroke:none" d="M 21.046875 -7.171875 C 22.253906 -7.171875 23.425781 -7.351562 24.5625 -7.71875 C 25.695312 -8.082031 26.535156 -8.429688 27.078125 -8.765625 L 27.875 -9.3125 L 31.25 -2.578125 C 31.132812 -2.492188 30.976562 -2.378906 30.78125 -2.234375 C 30.582031 -2.097656 30.125 -1.835938 29.40625 -1.453125 C 28.695312 -1.078125 27.929688 -0.75 27.109375 -0.46875 C 26.296875 -0.1875 25.226562 0.0625 23.90625 0.28125 C 22.582031 0.507812 21.222656 0.625 19.828125 0.625 C 16.585938 0.625 13.519531 -0.164062 10.625 -1.75 C 7.726562 -3.34375 5.394531 -5.53125 3.625 -8.3125 C 1.851562 -11.09375 0.96875 -14.097656 0.96875 -17.328125 C 0.96875 -19.773438 1.488281 -22.125 2.53125 -24.375 C 3.570312 -26.625 4.957031 -28.550781 6.6875 -30.15625 C 8.414062 -31.757812 10.429688 -33.035156 12.734375 -33.984375 C 15.035156 -34.941406 17.398438 -35.421875 19.828125 -35.421875 C 22.066406 -35.421875 24.132812 -35.15625 26.03125 -34.625 C 27.9375 -34.09375 29.28125 -33.554688 30.0625 -33.015625 L 31.25 -32.21875 L 27.875 -25.46875 C 27.675781 -25.632812 27.378906 -25.835938 26.984375 -26.078125 C 26.597656 -26.316406 25.8125 -26.632812 24.625 -27.03125 C 23.445312 -27.425781 22.253906 -27.625 21.046875 -27.625 C 19.128906 -27.625 17.410156 -27.3125 15.890625 -26.6875 C 14.378906 -26.070312 13.179688 -25.257812 12.296875 -24.25 C 11.410156 -23.238281 10.734375 -22.148438 10.265625 -20.984375 C 9.804688 -19.816406 9.578125 -18.628906 9.578125 -17.421875 C 9.578125 -14.773438 10.566406 -12.40625 12.546875 -10.3125 C 14.523438 -8.21875 17.359375 -7.171875 21.046875 -7.171875 Z M 21.046875 -7.171875 "/></g></g><g style="fill:#105ff8;fill-opacity:0.349;"><g transform="translate(383.168562, 101.100246)"><path style="stroke:none" d="M 10.125 -3.453125 C 10.707031 -3.453125 11.269531 -3.539062 11.8125 -3.71875 C 12.363281 -3.894531 12.769531 -4.0625 13.03125 -4.21875 L 13.421875 -4.484375 L 15.046875 -1.234375 C 14.984375 -1.191406 14.90625 -1.132812 14.8125 -1.0625 C 14.71875 -1 14.5 -0.875 14.15625 -0.6875 C 13.8125 -0.507812 13.441406 -0.351562 13.046875 -0.21875 C 12.660156 -0.0820312 12.144531 0.0351562 11.5 0.140625 C 10.863281 0.242188 10.210938 0.296875 9.546875 0.296875 C 7.984375 0.296875 6.503906 -0.0820312 5.109375 -0.84375 C 3.722656 -1.601562 2.601562 -2.65625 1.75 -4 C 0.894531 -5.34375 0.46875 -6.789062 0.46875 -8.34375 C 0.46875 -9.519531 0.71875 -10.648438 1.21875 -11.734375 C 1.71875 -12.816406 2.382812 -13.742188 3.21875 -14.515625 C 4.050781 -15.285156 5.019531 -15.898438 6.125 -16.359375 C 7.238281 -16.816406 8.378906 -17.046875 9.546875 -17.046875 C 10.617188 -17.046875 11.613281 -16.914062 12.53125 -16.65625 C 13.445312 -16.40625 14.09375 -16.148438 14.46875 -15.890625 L 15.046875 -15.5 L 13.421875 -12.265625 C 13.328125 -12.335938 13.179688 -12.429688 12.984375 -12.546875 C 12.796875 -12.660156 12.414062 -12.8125 11.84375 -13 C 11.28125 -13.195312 10.707031 -13.296875 10.125 -13.296875 C 9.207031 -13.296875 8.382812 -13.144531 7.65625 -12.84375 C 6.925781 -12.550781 6.347656 -12.160156 5.921875 -11.671875 C 5.492188 -11.179688 5.164062 -10.65625 4.9375 -10.09375 C 4.71875 -9.53125 4.609375 -8.957031 4.609375 -8.375 C 4.609375 -7.101562 5.082031 -5.960938 6.03125 -4.953125 C 6.988281 -3.953125 8.351562 -3.453125 10.125 -3.453125 Z M 10.125 -3.453125 "/></g></g><g style="fill:#000000;fill-opacity:1;"><g transform="translate(382.271353, 100.203023)"><path style="stroke:none" d="M 10.125 -3.453125 C 10.707031 -3.453125 11.269531 -3.539062 11.8125 -3.71875 C 12.363281 -3.894531 12.769531 -4.0625 13.03125 -4.21875 L 13.421875 -4.484375 L 15.046875 -1.234375 C 14.984375 -1.191406 14.90625 -1.132812 14.8125 -1.0625 C 14.71875 -1 14.5 -0.875 14.15625 -0.6875 C 13.8125 -0.507812 13.441406 -0.351562 13.046875 -0.21875 C 12.660156 -0.0820312 12.144531 0.0351562 11.5 0.140625 C 10.863281 0.242188 10.210938 0.296875 9.546875 0.296875 C 7.984375 0.296875 6.503906 -0.0820312 5.109375 -0.84375 C 3.722656 -1.601562 2.601562 -2.65625 1.75 -4 C 0.894531 -5.34375 0.46875 -6.789062 0.46875 -8.34375 C 0.46875 -9.519531 0.71875 -10.648438 1.21875 -11.734375 C 1.71875 -12.816406 2.382812 -13.742188 3.21875 -14.515625 C 4.050781 -15.285156 5.019531 -15.898438 6.125 -16.359375 C 7.238281 -16.816406 8.378906 -17.046875 9.546875 -17.046875 C 10.617188 -17.046875 11.613281 -16.914062 12.53125 -16.65625 C 13.445312 -16.40625 14.09375 -16.148438 14.46875 -15.890625 L 15.046875 -15.5 L 13.421875 -12.265625 C 13.328125 -12.335938 13.179688 -12.429688 12.984375 -12.546875 C 12.796875 -12.660156 12.414062 -12.8125 11.84375 -13 C 11.28125 -13.195312 10.707031 -13.296875 10.125 -13.296875 C 9.207031 -13.296875 8.382812 -13.144531 7.65625 -12.84375 C 6.925781 -12.550781 6.347656 -12.160156 5.921875 -11.671875 C 5.492188 -11.179688 5.164062 -10.65625 4.9375 -10.09375 C 4.71875 -9.53125 4.609375 -8.957031 4.609375 -8.375 C 4.609375 -7.101562 5.082031 -5.960938 6.03125 -4.953125 C 6.988281 -3.953125 8.351562 -3.453125 10.125 -3.453125 Z M 10.125 -3.453125 "/></g></g></g></svg>