<svg xmlns="http://www.w3.org/2000/svg" xmlns:xlink="http://www.w3.org/1999/xlink" width="780" zoomAndPan="magnify" viewBox="180 40 185 110.499995" height="250" preserveAspectRatio="xMidYMid meet" version="1.2"><defs><clipPath id="8d4dfe25a8"><path d="M 168 81 L 215 81 L 215 141 L 168 141 Z M 168 81 "/></clipPath><clipPath id="3753bf13de"><path d="M 160.226562 88.578125 L 189.320312 74.1875 L 215.589844 127.296875 L 186.496094 141.6875 Z M 160.226562 88.578125 "/></clipPath><clipPath id="35e8f26555"><path d="M 196.253906 89.773438 L 177.351562 81.332031 C 175.617188 80.554688 173.605469 81.550781 173.167969 83.398438 L 168.40625 103.546875 C 168.242188 104.230469 168.328125 104.953125 168.640625 105.585938 L 185.125 138.914062 C 185.867188 140.414062 187.683594 141.027344 189.179688 140.289062 L 212.847656 128.582031 C 214.347656 127.839844 214.960938 126.023438 214.21875 124.523438 L 197.734375 91.195312 C 197.421875 90.5625 196.898438 90.058594 196.253906 89.773438 Z M 179.308594 90.550781 C 178.023438 91.1875 176.464844 90.660156 175.828125 89.371094 C 175.191406 88.085938 175.71875 86.527344 177.003906 85.890625 C 178.292969 85.253906 179.851562 85.78125 180.488281 87.070312 C 181.121094 88.355469 180.59375 89.914062 179.308594 90.550781 Z M 179.308594 90.550781 "/></clipPath><clipPath id="baf175fa54"><path d="M 171 83 L 231 83 L 231 135 L 171 135 Z M 171 83 "/></clipPath><clipPath id="42456123d9"><path d="M 162.390625 97.09375 L 182.5625 71.664062 L 231.480469 110.46875 L 211.308594 135.898438 Z M 162.390625 97.09375 "/></clipPath><clipPath id="2c700a9ec2"><path d="M 196.203125 83.375 L 174.832031 83.269531 C 172.886719 83.273438 171.492188 85.03125 171.933594 86.925781 L 176.898438 107.714844 C 177.066406 108.421875 177.476562 109.0625 178.058594 109.523438 L 208.761719 133.878906 C 210.144531 134.976562 212.105469 134.800781 213.148438 133.492188 L 229.554688 112.808594 C 230.59375 111.496094 230.316406 109.546875 228.9375 108.449219 L 198.230469 84.09375 C 197.648438 83.632812 196.933594 83.378906 196.203125 83.375 Z M 180.925781 91.082031 C 180.03125 92.203125 178.347656 92.355469 177.164062 91.414062 C 175.976562 90.472656 175.738281 88.800781 176.632812 87.675781 C 177.523438 86.550781 179.207031 86.402344 180.394531 87.34375 C 181.578125 88.28125 181.816406 89.957031 180.925781 91.082031 Z M 180.925781 91.082031 "/></clipPath></defs><g id="f94518b003"><path style="fill:none;stroke-width:2;stroke-linecap:butt;stroke-linejoin:miter;stroke:#d9d9d9;stroke-opacity:1;stroke-miterlimit:4;" d="M 0.889288 16.322396 C 11.434202 -4.108187 21.981168 -4.106796 32.530188 16.32657 " transform="matrix(-0.335269,-0.658469,0.658469,-0.335269,166.280835,97.858745)"/><g style="fill:#ff914d;fill-opacity:0.4;"><g transform="translate(126.548984, 82.426237)"><path style="stroke:none" d="M 19.125 -19.734375 C 18.238281 -19.941406 17.453125 -20.015625 16.765625 -19.953125 C 16.085938 -19.898438 15.351562 -19.625 14.5625 -19.125 C 13.539062 -18.488281 12.882812 -17.660156 12.59375 -16.640625 C 12.3125 -15.617188 12.25 -14.539062 12.40625 -13.40625 C 12.5625 -12.269531 12.945312 -11.378906 13.5625 -10.734375 C 14.175781 -10.097656 14.925781 -9.671875 15.8125 -9.453125 C 16.707031 -9.242188 17.648438 -9.207031 18.640625 -9.34375 C 19.285156 -9.4375 19.957031 -9.640625 20.65625 -9.953125 C 21.363281 -10.273438 22 -10.609375 22.5625 -10.953125 C 23.132812 -11.304688 23.535156 -11.550781 23.765625 -11.6875 C 24.578125 -11.53125 25.300781 -11.15625 25.9375 -10.5625 C 26.582031 -9.976562 27.066406 -9.257812 27.390625 -8.40625 C 27.722656 -7.550781 27.828125 -6.640625 27.703125 -5.671875 C 27.578125 -4.710938 27.15625 -3.773438 26.4375 -2.859375 C 25.71875 -1.953125 24.613281 -1.15625 23.125 -0.46875 C 22.363281 -0.09375 21.492188 0.171875 20.515625 0.328125 C 19.546875 0.492188 18.535156 0.582031 17.484375 0.59375 C 16.441406 0.601562 15.421875 0.550781 14.421875 0.4375 C 13.421875 0.320312 12.5 0.15625 11.65625 -0.0625 C 9.15625 -0.707031 7.109375 -1.828125 5.515625 -3.421875 C 3.929688 -5.023438 2.785156 -7.046875 2.078125 -9.484375 C 1.597656 -11.203125 1.347656 -12.914062 1.328125 -14.625 C 1.304688 -16.332031 1.582031 -18.035156 2.15625 -19.734375 C 2.8125 -21.648438 3.785156 -23.257812 5.078125 -24.5625 C 6.367188 -25.875 7.914062 -26.972656 9.71875 -27.859375 C 12.125 -29.035156 14.769531 -29.570312 17.65625 -29.46875 C 20.539062 -29.363281 23.53125 -28.414062 26.625 -26.625 C 26.914062 -25.53125 26.960938 -24.539062 26.765625 -23.65625 C 26.578125 -22.769531 26.222656 -22.007812 25.703125 -21.375 C 25.179688 -20.738281 24.550781 -20.25 23.8125 -19.90625 C 23.070312 -19.5625 22.289062 -19.367188 21.46875 -19.328125 C 20.65625 -19.285156 19.875 -19.421875 19.125 -19.734375 Z M 19.125 -19.734375 "/></g></g><g style="fill:#ff914d;fill-opacity:0.4;"><g transform="translate(153.490951, 82.426237)"><path style="stroke:none" d="M 15.953125 -29.421875 C 17.910156 -29.441406 19.625 -29.21875 21.09375 -28.75 C 22.570312 -28.289062 23.828125 -27.695312 24.859375 -26.96875 C 25.898438 -26.238281 26.757812 -25.457031 27.4375 -24.625 C 28.125 -23.800781 28.664062 -23.019531 29.0625 -22.28125 C 29.457031 -21.539062 29.738281 -20.941406 29.90625 -20.484375 C 30.582031 -18.628906 30.984375 -16.765625 31.109375 -14.890625 C 31.234375 -13.015625 31.007812 -11.128906 30.4375 -9.234375 C 28.851562 -4.171875 25.492188 -1.035156 20.359375 0.171875 C 18.285156 0.671875 16.238281 0.828125 14.21875 0.640625 C 12.195312 0.460938 10.226562 -0.125 8.3125 -1.125 C 6.476562 -2.0625 5.019531 -3.285156 3.9375 -4.796875 C 2.851562 -6.304688 2.085938 -8.050781 1.640625 -10.03125 C 1.359375 -11.28125 1.191406 -12.554688 1.140625 -13.859375 C 1.085938 -15.171875 1.160156 -16.441406 1.359375 -17.671875 C 1.566406 -18.910156 1.898438 -20.019531 2.359375 -21 C 2.828125 -22.019531 3.425781 -23.023438 4.15625 -24.015625 C 4.882812 -25.003906 5.785156 -25.90625 6.859375 -26.71875 C 7.941406 -27.539062 9.234375 -28.195312 10.734375 -28.6875 C 12.234375 -29.175781 13.972656 -29.421875 15.953125 -29.421875 Z M 16.09375 -19.09375 C 15.382812 -19.09375 14.722656 -18.894531 14.109375 -18.5 C 13.503906 -18.101562 13.03125 -17.515625 12.6875 -16.734375 C 12.34375 -15.960938 12.207031 -15 12.28125 -13.84375 C 12.363281 -12.726562 12.617188 -11.84375 13.046875 -11.1875 C 13.484375 -10.53125 13.992188 -10.0625 14.578125 -9.78125 C 15.160156 -9.507812 15.703125 -9.394531 16.203125 -9.4375 C 16.722656 -9.46875 17.25 -9.632812 17.78125 -9.9375 C 18.3125 -10.238281 18.765625 -10.710938 19.140625 -11.359375 C 19.515625 -12.015625 19.726562 -12.878906 19.78125 -13.953125 C 19.863281 -15.054688 19.734375 -15.988281 19.390625 -16.75 C 19.054688 -17.507812 18.597656 -18.085938 18.015625 -18.484375 C 17.429688 -18.890625 16.789062 -19.09375 16.09375 -19.09375 Z M 16.09375 -19.09375 "/></g></g><g style="fill:#ff914d;fill-opacity:0.4;"><g transform="translate(184.125198, 82.426237)"><path style="stroke:none" d="M 29.453125 -9.8125 C 29.234375 -7.957031 28.691406 -6.367188 27.828125 -5.046875 C 26.960938 -3.722656 25.882812 -2.628906 24.59375 -1.765625 C 23.3125 -0.898438 21.921875 -0.257812 20.421875 0.15625 C 18.921875 0.570312 17.421875 0.78125 15.921875 0.78125 C 14.710938 0.78125 13.492188 0.710938 12.265625 0.578125 C 11.046875 0.441406 9.867188 0.171875 8.734375 -0.234375 C 7.597656 -0.640625 6.554688 -1.222656 5.609375 -1.984375 C 4.660156 -2.753906 3.859375 -3.765625 3.203125 -5.015625 C 2.546875 -6.265625 2.09375 -7.820312 1.84375 -9.6875 C 1.59375 -11.4375 1.472656 -13.335938 1.484375 -15.390625 C 1.492188 -17.453125 1.582031 -19.554688 1.75 -21.703125 C 1.925781 -23.847656 2.148438 -25.910156 2.421875 -27.890625 C 2.628906 -28.117188 3.007812 -28.328125 3.5625 -28.515625 C 4.125 -28.710938 4.785156 -28.859375 5.546875 -28.953125 C 6.304688 -29.054688 7.09375 -29.070312 7.90625 -29 C 8.726562 -28.9375 9.5 -28.757812 10.21875 -28.46875 C 10.945312 -28.175781 11.5625 -27.757812 12.0625 -27.21875 C 12.5625 -26.6875 12.867188 -25.976562 12.984375 -25.09375 C 13.015625 -24.78125 13.035156 -24.1875 13.046875 -23.3125 C 13.054688 -22.4375 13.0625 -21.398438 13.0625 -20.203125 C 13.0625 -19.003906 13.078125 -17.742188 13.109375 -16.421875 C 13.140625 -15.109375 13.1875 -13.851562 13.25 -12.65625 C 13.320312 -11.46875 13.425781 -10.460938 13.5625 -9.640625 C 13.675781 -9.003906 13.9375 -8.5 14.34375 -8.125 C 14.757812 -7.757812 15.226562 -7.5625 15.75 -7.53125 C 16.269531 -7.507812 16.75 -7.675781 17.1875 -8.03125 C 17.632812 -8.382812 17.929688 -8.957031 18.078125 -9.75 C 18.210938 -10.4375 18.332031 -11.335938 18.4375 -12.453125 C 18.550781 -13.578125 18.632812 -14.800781 18.6875 -16.125 C 18.75 -17.445312 18.773438 -18.789062 18.765625 -20.15625 C 18.753906 -21.519531 18.707031 -22.8125 18.625 -24.03125 C 18.550781 -25.257812 18.429688 -26.304688 18.265625 -27.171875 C 18.640625 -27.554688 19.160156 -27.882812 19.828125 -28.15625 C 20.492188 -28.4375 21.238281 -28.628906 22.0625 -28.734375 C 22.894531 -28.847656 23.726562 -28.84375 24.5625 -28.71875 C 25.394531 -28.59375 26.175781 -28.320312 26.90625 -27.90625 C 27.632812 -27.488281 28.242188 -26.894531 28.734375 -26.125 C 29.234375 -25.363281 29.539062 -24.394531 29.65625 -23.21875 C 29.726562 -22.425781 29.796875 -21.707031 29.859375 -21.0625 C 29.929688 -20.425781 29.984375 -19.773438 30.015625 -19.109375 C 30.046875 -18.441406 30.050781 -17.695312 30.03125 -16.875 C 30.007812 -16.050781 29.953125 -15.070312 29.859375 -13.9375 C 29.773438 -12.800781 29.640625 -11.425781 29.453125 -9.8125 Z M 29.453125 -9.8125 "/></g></g><g style="fill:#ff914d;fill-opacity:0.4;"><g transform="translate(214.297926, 82.426237)"><path style="stroke:none" d="M 22.75 -10.203125 C 21.65625 -9.398438 20.546875 -8.835938 19.421875 -8.515625 C 18.296875 -8.203125 17.25 -8.046875 16.28125 -8.046875 C 15.3125 -8.046875 14.515625 -8.109375 13.890625 -8.234375 C 13.265625 -8.359375 12.894531 -8.457031 12.78125 -8.53125 C 12.757812 -8.53125 12.75 -8.53125 12.75 -8.53125 C 12.75 -8.53125 12.738281 -8.53125 12.71875 -8.53125 C 12.71875 -8.53125 12.679688 -8.515625 12.609375 -8.484375 C 12.609375 -8.484375 12.601562 -8.476562 12.59375 -8.46875 C 12.582031 -8.457031 12.578125 -8.441406 12.578125 -8.421875 C 12.578125 -8.304688 12.578125 -7.96875 12.578125 -7.40625 C 12.578125 -6.851562 12.566406 -6.171875 12.546875 -5.359375 C 12.523438 -4.554688 12.492188 -3.71875 12.453125 -2.84375 C 12.421875 -1.96875 12.363281 -1.132812 12.28125 -0.34375 C 11.800781 0.175781 11.1875 0.5625 10.4375 0.8125 C 9.6875 1.0625 8.878906 1.144531 8.015625 1.0625 C 7.148438 0.988281 6.3125 0.726562 5.5 0.28125 C 4.695312 -0.15625 3.984375 -0.796875 3.359375 -1.640625 C 2.734375 -2.484375 2.296875 -3.5625 2.046875 -4.875 C 1.972656 -5.238281 1.910156 -5.847656 1.859375 -6.703125 C 1.804688 -7.554688 1.757812 -8.578125 1.71875 -9.765625 C 1.6875 -10.960938 1.671875 -12.238281 1.671875 -13.59375 C 1.671875 -14.957031 1.679688 -16.328125 1.703125 -17.703125 C 1.722656 -19.078125 1.757812 -20.382812 1.8125 -21.625 C 1.875 -22.863281 1.945312 -23.957031 2.03125 -24.90625 C 2.113281 -25.851562 2.222656 -26.578125 2.359375 -27.078125 C 2.785156 -27.484375 3.445312 -27.863281 4.34375 -28.21875 C 5.238281 -28.570312 6.289062 -28.867188 7.5 -29.109375 C 8.707031 -29.359375 10 -29.53125 11.375 -29.625 C 12.75 -29.71875 14.128906 -29.707031 15.515625 -29.59375 C 16.898438 -29.476562 18.222656 -29.242188 19.484375 -28.890625 C 20.742188 -28.546875 21.851562 -28.050781 22.8125 -27.40625 C 23.738281 -26.789062 24.507812 -25.941406 25.125 -24.859375 C 25.738281 -23.785156 26.175781 -22.585938 26.4375 -21.265625 C 26.695312 -19.953125 26.75 -18.613281 26.59375 -17.25 C 26.4375 -15.882812 26.046875 -14.585938 25.421875 -13.359375 C 24.796875 -12.128906 23.90625 -11.078125 22.75 -10.203125 Z M 17.015625 -18.40625 C 17.015625 -18.8125 16.832031 -19.1875 16.46875 -19.53125 C 16.101562 -19.875 15.628906 -20.09375 15.046875 -20.1875 C 14.472656 -20.28125 13.867188 -20.140625 13.234375 -19.765625 C 13.234375 -19.160156 13.234375 -18.628906 13.234375 -18.171875 C 13.234375 -17.710938 13.242188 -17.234375 13.265625 -16.734375 C 13.265625 -16.671875 13.300781 -16.597656 13.375 -16.515625 C 13.457031 -16.429688 13.523438 -16.390625 13.578125 -16.390625 C 13.953125 -16.390625 14.316406 -16.390625 14.671875 -16.390625 C 15.023438 -16.390625 15.382812 -16.425781 15.75 -16.5 C 16.59375 -16.632812 17.015625 -17.269531 17.015625 -18.40625 Z M 17.015625 -18.40625 "/></g></g><g style="fill:#ff914d;fill-opacity:0.4;"><g transform="translate(240.922611, 82.426237)"><path style="stroke:none" d="M 15.953125 -29.421875 C 17.910156 -29.441406 19.625 -29.21875 21.09375 -28.75 C 22.570312 -28.289062 23.828125 -27.695312 24.859375 -26.96875 C 25.898438 -26.238281 26.757812 -25.457031 27.4375 -24.625 C 28.125 -23.800781 28.664062 -23.019531 29.0625 -22.28125 C 29.457031 -21.539062 29.738281 -20.941406 29.90625 -20.484375 C 30.582031 -18.628906 30.984375 -16.765625 31.109375 -14.890625 C 31.234375 -13.015625 31.007812 -11.128906 30.4375 -9.234375 C 28.851562 -4.171875 25.492188 -1.035156 20.359375 0.171875 C 18.285156 0.671875 16.238281 0.828125 14.21875 0.640625 C 12.195312 0.460938 10.226562 -0.125 8.3125 -1.125 C 6.476562 -2.0625 5.019531 -3.285156 3.9375 -4.796875 C 2.851562 -6.304688 2.085938 -8.050781 1.640625 -10.03125 C 1.359375 -11.28125 1.191406 -12.554688 1.140625 -13.859375 C 1.085938 -15.171875 1.160156 -16.441406 1.359375 -17.671875 C 1.566406 -18.910156 1.898438 -20.019531 2.359375 -21 C 2.828125 -22.019531 3.425781 -23.023438 4.15625 -24.015625 C 4.882812 -25.003906 5.785156 -25.90625 6.859375 -26.71875 C 7.941406 -27.539062 9.234375 -28.195312 10.734375 -28.6875 C 12.234375 -29.175781 13.972656 -29.421875 15.953125 -29.421875 Z M 16.09375 -19.09375 C 15.382812 -19.09375 14.722656 -18.894531 14.109375 -18.5 C 13.503906 -18.101562 13.03125 -17.515625 12.6875 -16.734375 C 12.34375 -15.960938 12.207031 -15 12.28125 -13.84375 C 12.363281 -12.726562 12.617188 -11.84375 13.046875 -11.1875 C 13.484375 -10.53125 13.992188 -10.0625 14.578125 -9.78125 C 15.160156 -9.507812 15.703125 -9.394531 16.203125 -9.4375 C 16.722656 -9.46875 17.25 -9.632812 17.78125 -9.9375 C 18.3125 -10.238281 18.765625 -10.710938 19.140625 -11.359375 C 19.515625 -12.015625 19.726562 -12.878906 19.78125 -13.953125 C 19.863281 -15.054688 19.734375 -15.988281 19.390625 -16.75 C 19.054688 -17.507812 18.597656 -18.085938 18.015625 -18.484375 C 17.429688 -18.890625 16.789062 -19.09375 16.09375 -19.09375 Z M 16.09375 -19.09375 "/></g></g><g style="fill:#ff914d;fill-opacity:0.4;"><g transform="translate(271.874186, 82.426237)"><path style="stroke:none" d="M 18.8125 -16.203125 C 18.8125 -17.515625 18.8125 -18.738281 18.8125 -19.875 C 18.8125 -21.007812 18.8125 -22.144531 18.8125 -23.28125 C 18.8125 -24.425781 18.8125 -25.664062 18.8125 -27 C 19.519531 -27.84375 20.320312 -28.441406 21.21875 -28.796875 C 22.125 -29.148438 23.046875 -29.285156 23.984375 -29.203125 C 24.929688 -29.117188 25.800781 -28.851562 26.59375 -28.40625 C 27.382812 -27.96875 28.023438 -27.375 28.515625 -26.625 C 29.003906 -25.875 29.25 -25.007812 29.25 -24.03125 C 29.25 -23.445312 29.253906 -22.617188 29.265625 -21.546875 C 29.273438 -20.484375 29.285156 -19.269531 29.296875 -17.90625 C 29.304688 -16.539062 29.3125 -15.097656 29.3125 -13.578125 C 29.320312 -12.066406 29.320312 -10.566406 29.3125 -9.078125 C 29.3125 -7.585938 29.289062 -6.179688 29.25 -4.859375 C 29.207031 -3.546875 29.148438 -2.394531 29.078125 -1.40625 C 28.460938 -0.789062 27.648438 -0.316406 26.640625 0.015625 C 25.628906 0.347656 24.53125 0.476562 23.34375 0.40625 C 22.164062 0.34375 21.003906 0.03125 19.859375 -0.53125 C 18.710938 -1.101562 17.695312 -1.992188 16.8125 -3.203125 C 16.40625 -3.753906 15.984375 -4.378906 15.546875 -5.078125 C 15.117188 -5.785156 14.707031 -6.488281 14.3125 -7.1875 C 13.925781 -7.894531 13.578125 -8.53125 13.265625 -9.09375 C 12.960938 -9.664062 12.722656 -10.078125 12.546875 -10.328125 C 12.503906 -10.421875 12.445312 -10.503906 12.375 -10.578125 C 12.3125 -10.660156 12.253906 -10.738281 12.203125 -10.8125 C 12.179688 -10.8125 12.148438 -10.804688 12.109375 -10.796875 C 12.078125 -10.785156 12.039062 -10.78125 12 -10.78125 C 12.019531 -9.914062 12.046875 -9.125 12.078125 -8.40625 C 12.117188 -7.6875 12.160156 -6.972656 12.203125 -6.265625 C 12.242188 -5.566406 12.265625 -4.816406 12.265625 -4.015625 C 12.273438 -3.222656 12.273438 -2.304688 12.265625 -1.265625 C 11.316406 -0.492188 10.351562 0.015625 9.375 0.265625 C 8.394531 0.515625 7.457031 0.566406 6.5625 0.421875 C 5.664062 0.273438 4.863281 -0.015625 4.15625 -0.453125 C 3.445312 -0.898438 2.878906 -1.4375 2.453125 -2.0625 C 2.023438 -2.6875 1.800781 -3.34375 1.78125 -4.03125 C 1.75 -5.226562 1.71875 -6.539062 1.6875 -7.96875 C 1.65625 -9.40625 1.628906 -10.894531 1.609375 -12.4375 C 1.597656 -13.988281 1.59375 -15.515625 1.59375 -17.015625 C 1.59375 -18.515625 1.59375 -19.929688 1.59375 -21.265625 C 1.601562 -22.609375 1.628906 -23.789062 1.671875 -24.8125 C 1.710938 -25.84375 1.757812 -26.640625 1.8125 -27.203125 C 2.507812 -27.773438 3.363281 -28.234375 4.375 -28.578125 C 5.382812 -28.929688 6.441406 -29.09375 7.546875 -29.0625 C 8.648438 -29.03125 9.707031 -28.742188 10.71875 -28.203125 C 11.726562 -27.671875 12.578125 -26.828125 13.265625 -25.671875 C 13.765625 -24.828125 14.210938 -24.054688 14.609375 -23.359375 C 15.003906 -22.671875 15.390625 -21.992188 15.765625 -21.328125 C 16.140625 -20.660156 16.523438 -19.96875 16.921875 -19.25 C 17.328125 -18.53125 17.789062 -17.707031 18.3125 -16.78125 C 18.375 -16.664062 18.4375 -16.554688 18.5 -16.453125 C 18.570312 -16.347656 18.632812 -16.25 18.6875 -16.15625 C 18.707031 -16.175781 18.726562 -16.1875 18.75 -16.1875 C 18.769531 -16.1875 18.789062 -16.191406 18.8125 -16.203125 Z M 18.8125 -16.203125 "/></g></g><g style="fill:#ff914d;fill-opacity:0.4;"><g transform="translate(301.643081, 82.426237)"><path style="stroke:none" d="M 21.0625 -16.234375 C 22.519531 -15.335938 23.597656 -14.289062 24.296875 -13.09375 C 25.003906 -11.90625 25.382812 -10.664062 25.4375 -9.375 C 25.5 -8.082031 25.304688 -6.835938 24.859375 -5.640625 C 24.421875 -4.453125 23.78125 -3.398438 22.9375 -2.484375 C 22.101562 -1.578125 21.148438 -0.90625 20.078125 -0.46875 C 19.304688 -0.15625 18.363281 0.101562 17.25 0.3125 C 16.132812 0.53125 14.921875 0.660156 13.609375 0.703125 C 12.304688 0.753906 10.96875 0.6875 9.59375 0.5 C 8.21875 0.320312 6.890625 -0.00390625 5.609375 -0.484375 C 4.328125 -0.972656 3.171875 -1.640625 2.140625 -2.484375 C 1.578125 -3.191406 1.242188 -3.957031 1.140625 -4.78125 C 1.035156 -5.613281 1.113281 -6.410156 1.375 -7.171875 C 1.644531 -7.929688 2.0625 -8.570312 2.625 -9.09375 C 3.195312 -9.625 3.878906 -9.953125 4.671875 -10.078125 C 5.460938 -10.203125 6.328125 -10.035156 7.265625 -9.578125 C 8.628906 -8.898438 9.914062 -8.441406 11.125 -8.203125 C 12.34375 -7.960938 13.351562 -7.929688 14.15625 -8.109375 C 14.96875 -8.296875 15.453125 -8.679688 15.609375 -9.265625 C 15.753906 -9.835938 15.625 -10.316406 15.21875 -10.703125 C 14.820312 -11.085938 14.085938 -11.316406 13.015625 -11.390625 C 11.835938 -11.484375 10.660156 -11.679688 9.484375 -11.984375 C 8.316406 -12.296875 7.222656 -12.742188 6.203125 -13.328125 C 5.179688 -13.921875 4.316406 -14.691406 3.609375 -15.640625 C 2.910156 -16.597656 2.445312 -17.75 2.21875 -19.09375 C 2.144531 -19.570312 2.140625 -20.160156 2.203125 -20.859375 C 2.273438 -21.566406 2.445312 -22.3125 2.71875 -23.09375 C 3 -23.882812 3.421875 -24.664062 3.984375 -25.4375 C 4.554688 -26.207031 5.3125 -26.910156 6.25 -27.546875 C 7.195312 -28.179688 8.363281 -28.679688 9.75 -29.046875 C 10.707031 -29.316406 11.722656 -29.484375 12.796875 -29.546875 C 13.878906 -29.617188 14.953125 -29.601562 16.015625 -29.5 C 17.085938 -29.40625 18.082031 -29.222656 19 -28.953125 C 19.925781 -28.691406 20.695312 -28.359375 21.3125 -27.953125 C 22.3125 -27.273438 23.03125 -26.554688 23.46875 -25.796875 C 23.914062 -25.035156 24.132812 -24.285156 24.125 -23.546875 C 24.113281 -22.804688 23.9375 -22.113281 23.59375 -21.46875 C 23.25 -20.832031 22.796875 -20.285156 22.234375 -19.828125 C 21.679688 -19.378906 21.066406 -19.078125 20.390625 -18.921875 C 19.972656 -19.441406 19.390625 -19.890625 18.640625 -20.265625 C 17.898438 -20.640625 17.101562 -20.925781 16.25 -21.125 C 15.394531 -21.332031 14.582031 -21.429688 13.8125 -21.421875 C 13.039062 -21.410156 12.410156 -21.285156 11.921875 -21.046875 C 11.429688 -20.804688 11.175781 -20.4375 11.15625 -19.9375 C 11.15625 -19.625 11.289062 -19.363281 11.5625 -19.15625 C 11.832031 -18.957031 12.332031 -18.8125 13.0625 -18.71875 C 15.175781 -18.445312 16.90625 -18.046875 18.25 -17.515625 C 19.601562 -16.992188 20.539062 -16.566406 21.0625 -16.234375 Z M 21.0625 -16.234375 "/></g></g><g style="fill:#ff914d;fill-opacity:1;"><g transform="translate(124.636297, 80.513543)"><path style="stroke:none" d="M 19.125 -19.734375 C 18.238281 -19.941406 17.453125 -20.015625 16.765625 -19.953125 C 16.085938 -19.898438 15.351562 -19.625 14.5625 -19.125 C 13.539062 -18.488281 12.882812 -17.660156 12.59375 -16.640625 C 12.3125 -15.617188 12.25 -14.539062 12.40625 -13.40625 C 12.5625 -12.269531 12.945312 -11.378906 13.5625 -10.734375 C 14.175781 -10.097656 14.925781 -9.671875 15.8125 -9.453125 C 16.707031 -9.242188 17.648438 -9.207031 18.640625 -9.34375 C 19.285156 -9.4375 19.957031 -9.640625 20.65625 -9.953125 C 21.363281 -10.273438 22 -10.609375 22.5625 -10.953125 C 23.132812 -11.304688 23.535156 -11.550781 23.765625 -11.6875 C 24.578125 -11.53125 25.300781 -11.15625 25.9375 -10.5625 C 26.582031 -9.976562 27.066406 -9.257812 27.390625 -8.40625 C 27.722656 -7.550781 27.828125 -6.640625 27.703125 -5.671875 C 27.578125 -4.710938 27.15625 -3.773438 26.4375 -2.859375 C 25.71875 -1.953125 24.613281 -1.15625 23.125 -0.46875 C 22.363281 -0.09375 21.492188 0.171875 20.515625 0.328125 C 19.546875 0.492188 18.535156 0.582031 17.484375 0.59375 C 16.441406 0.601562 15.421875 0.550781 14.421875 0.4375 C 13.421875 0.320312 12.5 0.15625 11.65625 -0.0625 C 9.15625 -0.707031 7.109375 -1.828125 5.515625 -3.421875 C 3.929688 -5.023438 2.785156 -7.046875 2.078125 -9.484375 C 1.597656 -11.203125 1.347656 -12.914062 1.328125 -14.625 C 1.304688 -16.332031 1.582031 -18.035156 2.15625 -19.734375 C 2.8125 -21.648438 3.785156 -23.257812 5.078125 -24.5625 C 6.367188 -25.875 7.914062 -26.972656 9.71875 -27.859375 C 12.125 -29.035156 14.769531 -29.570312 17.65625 -29.46875 C 20.539062 -29.363281 23.53125 -28.414062 26.625 -26.625 C 26.914062 -25.53125 26.960938 -24.539062 26.765625 -23.65625 C 26.578125 -22.769531 26.222656 -22.007812 25.703125 -21.375 C 25.179688 -20.738281 24.550781 -20.25 23.8125 -19.90625 C 23.070312 -19.5625 22.289062 -19.367188 21.46875 -19.328125 C 20.65625 -19.285156 19.875 -19.421875 19.125 -19.734375 Z M 19.125 -19.734375 "/></g></g><g style="fill:#ff914d;fill-opacity:1;"><g transform="translate(151.578264, 80.513543)"><path style="stroke:none" d="M 15.953125 -29.421875 C 17.910156 -29.441406 19.625 -29.21875 21.09375 -28.75 C 22.570312 -28.289062 23.828125 -27.695312 24.859375 -26.96875 C 25.898438 -26.238281 26.757812 -25.457031 27.4375 -24.625 C 28.125 -23.800781 28.664062 -23.019531 29.0625 -22.28125 C 29.457031 -21.539062 29.738281 -20.941406 29.90625 -20.484375 C 30.582031 -18.628906 30.984375 -16.765625 31.109375 -14.890625 C 31.234375 -13.015625 31.007812 -11.128906 30.4375 -9.234375 C 28.851562 -4.171875 25.492188 -1.035156 20.359375 0.171875 C 18.285156 0.671875 16.238281 0.828125 14.21875 0.640625 C 12.195312 0.460938 10.226562 -0.125 8.3125 -1.125 C 6.476562 -2.0625 5.019531 -3.285156 3.9375 -4.796875 C 2.851562 -6.304688 2.085938 -8.050781 1.640625 -10.03125 C 1.359375 -11.28125 1.191406 -12.554688 1.140625 -13.859375 C 1.085938 -15.171875 1.160156 -16.441406 1.359375 -17.671875 C 1.566406 -18.910156 1.898438 -20.019531 2.359375 -21 C 2.828125 -22.019531 3.425781 -23.023438 4.15625 -24.015625 C 4.882812 -25.003906 5.785156 -25.90625 6.859375 -26.71875 C 7.941406 -27.539062 9.234375 -28.195312 10.734375 -28.6875 C 12.234375 -29.175781 13.972656 -29.421875 15.953125 -29.421875 Z M 16.09375 -19.09375 C 15.382812 -19.09375 14.722656 -18.894531 14.109375 -18.5 C 13.503906 -18.101562 13.03125 -17.515625 12.6875 -16.734375 C 12.34375 -15.960938 12.207031 -15 12.28125 -13.84375 C 12.363281 -12.726562 12.617188 -11.84375 13.046875 -11.1875 C 13.484375 -10.53125 13.992188 -10.0625 14.578125 -9.78125 C 15.160156 -9.507812 15.703125 -9.394531 16.203125 -9.4375 C 16.722656 -9.46875 17.25 -9.632812 17.78125 -9.9375 C 18.3125 -10.238281 18.765625 -10.710938 19.140625 -11.359375 C 19.515625 -12.015625 19.726562 -12.878906 19.78125 -13.953125 C 19.863281 -15.054688 19.734375 -15.988281 19.390625 -16.75 C 19.054688 -17.507812 18.597656 -18.085938 18.015625 -18.484375 C 17.429688 -18.890625 16.789062 -19.09375 16.09375 -19.09375 Z M 16.09375 -19.09375 "/></g></g><g style="fill:#ff914d;fill-opacity:1;"><g transform="translate(182.212511, 80.513543)"><path style="stroke:none" d="M 29.453125 -9.8125 C 29.234375 -7.957031 28.691406 -6.367188 27.828125 -5.046875 C 26.960938 -3.722656 25.882812 -2.628906 24.59375 -1.765625 C 23.3125 -0.898438 21.921875 -0.257812 20.421875 0.15625 C 18.921875 0.570312 17.421875 0.78125 15.921875 0.78125 C 14.710938 0.78125 13.492188 0.710938 12.265625 0.578125 C 11.046875 0.441406 9.867188 0.171875 8.734375 -0.234375 C 7.597656 -0.640625 6.554688 -1.222656 5.609375 -1.984375 C 4.660156 -2.753906 3.859375 -3.765625 3.203125 -5.015625 C 2.546875 -6.265625 2.09375 -7.820312 1.84375 -9.6875 C 1.59375 -11.4375 1.472656 -13.335938 1.484375 -15.390625 C 1.492188 -17.453125 1.582031 -19.554688 1.75 -21.703125 C 1.925781 -23.847656 2.148438 -25.910156 2.421875 -27.890625 C 2.628906 -28.117188 3.007812 -28.328125 3.5625 -28.515625 C 4.125 -28.710938 4.785156 -28.859375 5.546875 -28.953125 C 6.304688 -29.054688 7.09375 -29.070312 7.90625 -29 C 8.726562 -28.9375 9.5 -28.757812 10.21875 -28.46875 C 10.945312 -28.175781 11.5625 -27.757812 12.0625 -27.21875 C 12.5625 -26.6875 12.867188 -25.976562 12.984375 -25.09375 C 13.015625 -24.78125 13.035156 -24.1875 13.046875 -23.3125 C 13.054688 -22.4375 13.0625 -21.398438 13.0625 -20.203125 C 13.0625 -19.003906 13.078125 -17.742188 13.109375 -16.421875 C 13.140625 -15.109375 13.1875 -13.851562 13.25 -12.65625 C 13.320312 -11.46875 13.425781 -10.460938 13.5625 -9.640625 C 13.675781 -9.003906 13.9375 -8.5 14.34375 -8.125 C 14.757812 -7.757812 15.226562 -7.5625 15.75 -7.53125 C 16.269531 -7.507812 16.75 -7.675781 17.1875 -8.03125 C 17.632812 -8.382812 17.929688 -8.957031 18.078125 -9.75 C 18.210938 -10.4375 18.332031 -11.335938 18.4375 -12.453125 C 18.550781 -13.578125 18.632812 -14.800781 18.6875 -16.125 C 18.75 -17.445312 18.773438 -18.789062 18.765625 -20.15625 C 18.753906 -21.519531 18.707031 -22.8125 18.625 -24.03125 C 18.550781 -25.257812 18.429688 -26.304688 18.265625 -27.171875 C 18.640625 -27.554688 19.160156 -27.882812 19.828125 -28.15625 C 20.492188 -28.4375 21.238281 -28.628906 22.0625 -28.734375 C 22.894531 -28.847656 23.726562 -28.84375 24.5625 -28.71875 C 25.394531 -28.59375 26.175781 -28.320312 26.90625 -27.90625 C 27.632812 -27.488281 28.242188 -26.894531 28.734375 -26.125 C 29.234375 -25.363281 29.539062 -24.394531 29.65625 -23.21875 C 29.726562 -22.425781 29.796875 -21.707031 29.859375 -21.0625 C 29.929688 -20.425781 29.984375 -19.773438 30.015625 -19.109375 C 30.046875 -18.441406 30.050781 -17.695312 30.03125 -16.875 C 30.007812 -16.050781 29.953125 -15.070312 29.859375 -13.9375 C 29.773438 -12.800781 29.640625 -11.425781 29.453125 -9.8125 Z M 29.453125 -9.8125 "/></g></g><g style="fill:#ff914d;fill-opacity:1;"><g transform="translate(212.385239, 80.513543)"><path style="stroke:none" d="M 22.75 -10.203125 C 21.65625 -9.398438 20.546875 -8.835938 19.421875 -8.515625 C 18.296875 -8.203125 17.25 -8.046875 16.28125 -8.046875 C 15.3125 -8.046875 14.515625 -8.109375 13.890625 -8.234375 C 13.265625 -8.359375 12.894531 -8.457031 12.78125 -8.53125 C 12.757812 -8.53125 12.75 -8.53125 12.75 -8.53125 C 12.75 -8.53125 12.738281 -8.53125 12.71875 -8.53125 C 12.71875 -8.53125 12.679688 -8.515625 12.609375 -8.484375 C 12.609375 -8.484375 12.601562 -8.476562 12.59375 -8.46875 C 12.582031 -8.457031 12.578125 -8.441406 12.578125 -8.421875 C 12.578125 -8.304688 12.578125 -7.96875 12.578125 -7.40625 C 12.578125 -6.851562 12.566406 -6.171875 12.546875 -5.359375 C 12.523438 -4.554688 12.492188 -3.71875 12.453125 -2.84375 C 12.421875 -1.96875 12.363281 -1.132812 12.28125 -0.34375 C 11.800781 0.175781 11.1875 0.5625 10.4375 0.8125 C 9.6875 1.0625 8.878906 1.144531 8.015625 1.0625 C 7.148438 0.988281 6.3125 0.726562 5.5 0.28125 C 4.695312 -0.15625 3.984375 -0.796875 3.359375 -1.640625 C 2.734375 -2.484375 2.296875 -3.5625 2.046875 -4.875 C 1.972656 -5.238281 1.910156 -5.847656 1.859375 -6.703125 C 1.804688 -7.554688 1.757812 -8.578125 1.71875 -9.765625 C 1.6875 -10.960938 1.671875 -12.238281 1.671875 -13.59375 C 1.671875 -14.957031 1.679688 -16.328125 1.703125 -17.703125 C 1.722656 -19.078125 1.757812 -20.382812 1.8125 -21.625 C 1.875 -22.863281 1.945312 -23.957031 2.03125 -24.90625 C 2.113281 -25.851562 2.222656 -26.578125 2.359375 -27.078125 C 2.785156 -27.484375 3.445312 -27.863281 4.34375 -28.21875 C 5.238281 -28.570312 6.289062 -28.867188 7.5 -29.109375 C 8.707031 -29.359375 10 -29.53125 11.375 -29.625 C 12.75 -29.71875 14.128906 -29.707031 15.515625 -29.59375 C 16.898438 -29.476562 18.222656 -29.242188 19.484375 -28.890625 C 20.742188 -28.546875 21.851562 -28.050781 22.8125 -27.40625 C 23.738281 -26.789062 24.507812 -25.941406 25.125 -24.859375 C 25.738281 -23.785156 26.175781 -22.585938 26.4375 -21.265625 C 26.695312 -19.953125 26.75 -18.613281 26.59375 -17.25 C 26.4375 -15.882812 26.046875 -14.585938 25.421875 -13.359375 C 24.796875 -12.128906 23.90625 -11.078125 22.75 -10.203125 Z M 17.015625 -18.40625 C 17.015625 -18.8125 16.832031 -19.1875 16.46875 -19.53125 C 16.101562 -19.875 15.628906 -20.09375 15.046875 -20.1875 C 14.472656 -20.28125 13.867188 -20.140625 13.234375 -19.765625 C 13.234375 -19.160156 13.234375 -18.628906 13.234375 -18.171875 C 13.234375 -17.710938 13.242188 -17.234375 13.265625 -16.734375 C 13.265625 -16.671875 13.300781 -16.597656 13.375 -16.515625 C 13.457031 -16.429688 13.523438 -16.390625 13.578125 -16.390625 C 13.953125 -16.390625 14.316406 -16.390625 14.671875 -16.390625 C 15.023438 -16.390625 15.382812 -16.425781 15.75 -16.5 C 16.59375 -16.632812 17.015625 -17.269531 17.015625 -18.40625 Z M 17.015625 -18.40625 "/></g></g><g style="fill:#ff914d;fill-opacity:1;"><g transform="translate(239.009925, 80.513543)"><path style="stroke:none" d="M 15.953125 -29.421875 C 17.910156 -29.441406 19.625 -29.21875 21.09375 -28.75 C 22.570312 -28.289062 23.828125 -27.695312 24.859375 -26.96875 C 25.898438 -26.238281 26.757812 -25.457031 27.4375 -24.625 C 28.125 -23.800781 28.664062 -23.019531 29.0625 -22.28125 C 29.457031 -21.539062 29.738281 -20.941406 29.90625 -20.484375 C 30.582031 -18.628906 30.984375 -16.765625 31.109375 -14.890625 C 31.234375 -13.015625 31.007812 -11.128906 30.4375 -9.234375 C 28.851562 -4.171875 25.492188 -1.035156 20.359375 0.171875 C 18.285156 0.671875 16.238281 0.828125 14.21875 0.640625 C 12.195312 0.460938 10.226562 -0.125 8.3125 -1.125 C 6.476562 -2.0625 5.019531 -3.285156 3.9375 -4.796875 C 2.851562 -6.304688 2.085938 -8.050781 1.640625 -10.03125 C 1.359375 -11.28125 1.191406 -12.554688 1.140625 -13.859375 C 1.085938 -15.171875 1.160156 -16.441406 1.359375 -17.671875 C 1.566406 -18.910156 1.898438 -20.019531 2.359375 -21 C 2.828125 -22.019531 3.425781 -23.023438 4.15625 -24.015625 C 4.882812 -25.003906 5.785156 -25.90625 6.859375 -26.71875 C 7.941406 -27.539062 9.234375 -28.195312 10.734375 -28.6875 C 12.234375 -29.175781 13.972656 -29.421875 15.953125 -29.421875 Z M 16.09375 -19.09375 C 15.382812 -19.09375 14.722656 -18.894531 14.109375 -18.5 C 13.503906 -18.101562 13.03125 -17.515625 12.6875 -16.734375 C 12.34375 -15.960938 12.207031 -15 12.28125 -13.84375 C 12.363281 -12.726562 12.617188 -11.84375 13.046875 -11.1875 C 13.484375 -10.53125 13.992188 -10.0625 14.578125 -9.78125 C 15.160156 -9.507812 15.703125 -9.394531 16.203125 -9.4375 C 16.722656 -9.46875 17.25 -9.632812 17.78125 -9.9375 C 18.3125 -10.238281 18.765625 -10.710938 19.140625 -11.359375 C 19.515625 -12.015625 19.726562 -12.878906 19.78125 -13.953125 C 19.863281 -15.054688 19.734375 -15.988281 19.390625 -16.75 C 19.054688 -17.507812 18.597656 -18.085938 18.015625 -18.484375 C 17.429688 -18.890625 16.789062 -19.09375 16.09375 -19.09375 Z M 16.09375 -19.09375 "/></g></g><g style="fill:#ff914d;fill-opacity:1;"><g transform="translate(269.9615, 80.513543)"><path style="stroke:none" d="M 18.8125 -16.203125 C 18.8125 -17.515625 18.8125 -18.738281 18.8125 -19.875 C 18.8125 -21.007812 18.8125 -22.144531 18.8125 -23.28125 C 18.8125 -24.425781 18.8125 -25.664062 18.8125 -27 C 19.519531 -27.84375 20.320312 -28.441406 21.21875 -28.796875 C 22.125 -29.148438 23.046875 -29.285156 23.984375 -29.203125 C 24.929688 -29.117188 25.800781 -28.851562 26.59375 -28.40625 C 27.382812 -27.96875 28.023438 -27.375 28.515625 -26.625 C 29.003906 -25.875 29.25 -25.007812 29.25 -24.03125 C 29.25 -23.445312 29.253906 -22.617188 29.265625 -21.546875 C 29.273438 -20.484375 29.285156 -19.269531 29.296875 -17.90625 C 29.304688 -16.539062 29.3125 -15.097656 29.3125 -13.578125 C 29.320312 -12.066406 29.320312 -10.566406 29.3125 -9.078125 C 29.3125 -7.585938 29.289062 -6.179688 29.25 -4.859375 C 29.207031 -3.546875 29.148438 -2.394531 29.078125 -1.40625 C 28.460938 -0.789062 27.648438 -0.316406 26.640625 0.015625 C 25.628906 0.347656 24.53125 0.476562 23.34375 0.40625 C 22.164062 0.34375 21.003906 0.03125 19.859375 -0.53125 C 18.710938 -1.101562 17.695312 -1.992188 16.8125 -3.203125 C 16.40625 -3.753906 15.984375 -4.378906 15.546875 -5.078125 C 15.117188 -5.785156 14.707031 -6.488281 14.3125 -7.1875 C 13.925781 -7.894531 13.578125 -8.53125 13.265625 -9.09375 C 12.960938 -9.664062 12.722656 -10.078125 12.546875 -10.328125 C 12.503906 -10.421875 12.445312 -10.503906 12.375 -10.578125 C 12.3125 -10.660156 12.253906 -10.738281 12.203125 -10.8125 C 12.179688 -10.8125 12.148438 -10.804688 12.109375 -10.796875 C 12.078125 -10.785156 12.039062 -10.78125 12 -10.78125 C 12.019531 -9.914062 12.046875 -9.125 12.078125 -8.40625 C 12.117188 -7.6875 12.160156 -6.972656 12.203125 -6.265625 C 12.242188 -5.566406 12.265625 -4.816406 12.265625 -4.015625 C 12.273438 -3.222656 12.273438 -2.304688 12.265625 -1.265625 C 11.316406 -0.492188 10.351562 0.015625 9.375 0.265625 C 8.394531 0.515625 7.457031 0.566406 6.5625 0.421875 C 5.664062 0.273438 4.863281 -0.015625 4.15625 -0.453125 C 3.445312 -0.898438 2.878906 -1.4375 2.453125 -2.0625 C 2.023438 -2.6875 1.800781 -3.34375 1.78125 -4.03125 C 1.75 -5.226562 1.71875 -6.539062 1.6875 -7.96875 C 1.65625 -9.40625 1.628906 -10.894531 1.609375 -12.4375 C 1.597656 -13.988281 1.59375 -15.515625 1.59375 -17.015625 C 1.59375 -18.515625 1.59375 -19.929688 1.59375 -21.265625 C 1.601562 -22.609375 1.628906 -23.789062 1.671875 -24.8125 C 1.710938 -25.84375 1.757812 -26.640625 1.8125 -27.203125 C 2.507812 -27.773438 3.363281 -28.234375 4.375 -28.578125 C 5.382812 -28.929688 6.441406 -29.09375 7.546875 -29.0625 C 8.648438 -29.03125 9.707031 -28.742188 10.71875 -28.203125 C 11.726562 -27.671875 12.578125 -26.828125 13.265625 -25.671875 C 13.765625 -24.828125 14.210938 -24.054688 14.609375 -23.359375 C 15.003906 -22.671875 15.390625 -21.992188 15.765625 -21.328125 C 16.140625 -20.660156 16.523438 -19.96875 16.921875 -19.25 C 17.328125 -18.53125 17.789062 -17.707031 18.3125 -16.78125 C 18.375 -16.664062 18.4375 -16.554688 18.5 -16.453125 C 18.570312 -16.347656 18.632812 -16.25 18.6875 -16.15625 C 18.707031 -16.175781 18.726562 -16.1875 18.75 -16.1875 C 18.769531 -16.1875 18.789062 -16.191406 18.8125 -16.203125 Z M 18.8125 -16.203125 "/></g></g><g style="fill:#ff914d;fill-opacity:1;"><g transform="translate(299.730394, 80.513543)"><path style="stroke:none" d="M 21.0625 -16.234375 C 22.519531 -15.335938 23.597656 -14.289062 24.296875 -13.09375 C 25.003906 -11.90625 25.382812 -10.664062 25.4375 -9.375 C 25.5 -8.082031 25.304688 -6.835938 24.859375 -5.640625 C 24.421875 -4.453125 23.78125 -3.398438 22.9375 -2.484375 C 22.101562 -1.578125 21.148438 -0.90625 20.078125 -0.46875 C 19.304688 -0.15625 18.363281 0.101562 17.25 0.3125 C 16.132812 0.53125 14.921875 0.660156 13.609375 0.703125 C 12.304688 0.753906 10.96875 0.6875 9.59375 0.5 C 8.21875 0.320312 6.890625 -0.00390625 5.609375 -0.484375 C 4.328125 -0.972656 3.171875 -1.640625 2.140625 -2.484375 C 1.578125 -3.191406 1.242188 -3.957031 1.140625 -4.78125 C 1.035156 -5.613281 1.113281 -6.410156 1.375 -7.171875 C 1.644531 -7.929688 2.0625 -8.570312 2.625 -9.09375 C 3.195312 -9.625 3.878906 -9.953125 4.671875 -10.078125 C 5.460938 -10.203125 6.328125 -10.035156 7.265625 -9.578125 C 8.628906 -8.898438 9.914062 -8.441406 11.125 -8.203125 C 12.34375 -7.960938 13.351562 -7.929688 14.15625 -8.109375 C 14.96875 -8.296875 15.453125 -8.679688 15.609375 -9.265625 C 15.753906 -9.835938 15.625 -10.316406 15.21875 -10.703125 C 14.820312 -11.085938 14.085938 -11.316406 13.015625 -11.390625 C 11.835938 -11.484375 10.660156 -11.679688 9.484375 -11.984375 C 8.316406 -12.296875 7.222656 -12.742188 6.203125 -13.328125 C 5.179688 -13.921875 4.316406 -14.691406 3.609375 -15.640625 C 2.910156 -16.597656 2.445312 -17.75 2.21875 -19.09375 C 2.144531 -19.570312 2.140625 -20.160156 2.203125 -20.859375 C 2.273438 -21.566406 2.445312 -22.3125 2.71875 -23.09375 C 3 -23.882812 3.421875 -24.664062 3.984375 -25.4375 C 4.554688 -26.207031 5.3125 -26.910156 6.25 -27.546875 C 7.195312 -28.179688 8.363281 -28.679688 9.75 -29.046875 C 10.707031 -29.316406 11.722656 -29.484375 12.796875 -29.546875 C 13.878906 -29.617188 14.953125 -29.601562 16.015625 -29.5 C 17.085938 -29.40625 18.082031 -29.222656 19 -28.953125 C 19.925781 -28.691406 20.695312 -28.359375 21.3125 -27.953125 C 22.3125 -27.273438 23.03125 -26.554688 23.46875 -25.796875 C 23.914062 -25.035156 24.132812 -24.285156 24.125 -23.546875 C 24.113281 -22.804688 23.9375 -22.113281 23.59375 -21.46875 C 23.25 -20.832031 22.796875 -20.285156 22.234375 -19.828125 C 21.679688 -19.378906 21.066406 -19.078125 20.390625 -18.921875 C 19.972656 -19.441406 19.390625 -19.890625 18.640625 -20.265625 C 17.898438 -20.640625 17.101562 -20.925781 16.25 -21.125 C 15.394531 -21.332031 14.582031 -21.429688 13.8125 -21.421875 C 13.039062 -21.410156 12.410156 -21.285156 11.921875 -21.046875 C 11.429688 -20.804688 11.175781 -20.4375 11.15625 -19.9375 C 11.15625 -19.625 11.289062 -19.363281 11.5625 -19.15625 C 11.832031 -18.957031 12.332031 -18.8125 13.0625 -18.71875 C 15.175781 -18.445312 16.90625 -18.046875 18.25 -17.515625 C 19.601562 -16.992188 20.539062 -16.566406 21.0625 -16.234375 Z M 21.0625 -16.234375 "/></g></g><g clip-rule="nonzero" clip-path="url(#8d4dfe25a8)"><g clip-rule="nonzero" clip-path="url(#3753bf13de)"><g clip-rule="nonzero" clip-path="url(#35e8f26555)"><path style="stroke:none;fill-rule:nonzero;fill: #6f85ff;fill-opacity:1;" d="M 160.226562 88.578125 L 189.320312 74.1875 L 215.539062 127.191406 L 186.441406 141.582031 Z M 160.226562 88.578125 "/></g></g></g><g style="fill:#00bf63;fill-opacity:0.4;"><g transform="translate(333.340403, 82.426237)"><path style="stroke:none" d="M 13.46875 -9.71875 C 14.507812 -9.71875 15.703125 -9.734375 17.046875 -9.765625 C 18.390625 -9.796875 19.8125 -9.800781 21.3125 -9.78125 C 22.8125 -9.757812 24.300781 -9.648438 25.78125 -9.453125 C 26.363281 -8.378906 26.617188 -7.300781 26.546875 -6.21875 C 26.484375 -5.132812 26.1875 -4.132812 25.65625 -3.21875 C 25.125 -2.300781 24.4375 -1.550781 23.59375 -0.96875 C 22.75 -0.394531 21.828125 -0.0703125 20.828125 0 C 20.035156 0.0625 19.179688 0.0976562 18.265625 0.109375 C 17.359375 0.128906 16.460938 0.140625 15.578125 0.140625 C 14.691406 0.140625 13.882812 0.132812 13.15625 0.125 C 12.4375 0.113281 11.859375 0.101562 11.421875 0.09375 C 10.992188 0.09375 10.78125 0.09375 10.78125 0.09375 C 10.207031 0.09375 9.539062 0.0625 8.78125 0 C 8.019531 -0.0625 7.242188 -0.1875 6.453125 -0.375 C 5.671875 -0.5625 4.9375 -0.867188 4.25 -1.296875 C 3.570312 -1.722656 3.003906 -2.300781 2.546875 -3.03125 C 2.097656 -3.757812 1.835938 -4.679688 1.765625 -5.796875 C 1.679688 -7.085938 1.859375 -8.304688 2.296875 -9.453125 C 2.742188 -10.609375 3.382812 -11.734375 4.21875 -12.828125 C 5.0625 -13.929688 6.046875 -15.039062 7.171875 -16.15625 C 8.296875 -17.269531 9.5 -18.429688 10.78125 -19.640625 C 9.4375 -19.640625 8.148438 -19.613281 6.921875 -19.5625 C 5.691406 -19.519531 4.640625 -19.484375 3.765625 -19.453125 C 2.890625 -19.421875 2.304688 -19.4375 2.015625 -19.5 C 1.648438 -19.957031 1.382812 -20.5625 1.21875 -21.3125 C 1.0625 -22.0625 1.015625 -22.851562 1.078125 -23.6875 C 1.148438 -24.53125 1.367188 -25.328125 1.734375 -26.078125 C 2.097656 -26.828125 2.625 -27.457031 3.3125 -27.96875 C 4.007812 -28.476562 4.894531 -28.757812 5.96875 -28.8125 C 6.5625 -28.851562 7.332031 -28.882812 8.28125 -28.90625 C 9.238281 -28.925781 10.300781 -28.9375 11.46875 -28.9375 C 12.644531 -28.9375 13.847656 -28.9375 15.078125 -28.9375 C 16.316406 -28.9375 17.503906 -28.929688 18.640625 -28.921875 C 19.785156 -28.910156 20.816406 -28.898438 21.734375 -28.890625 C 22.660156 -28.878906 23.394531 -28.875 23.9375 -28.875 C 24.363281 -28.394531 24.707031 -27.722656 24.96875 -26.859375 C 25.226562 -25.992188 25.304688 -25.03125 25.203125 -23.96875 C 25.109375 -22.90625 24.71875 -21.835938 24.03125 -20.765625 C 23.664062 -20.191406 23.164062 -19.53125 22.53125 -18.78125 C 21.894531 -18.03125 21.175781 -17.226562 20.375 -16.375 C 19.582031 -15.53125 18.765625 -14.695312 17.921875 -13.875 C 17.085938 -13.050781 16.28125 -12.273438 15.5 -11.546875 C 14.71875 -10.828125 14.039062 -10.21875 13.46875 -9.71875 Z M 13.46875 -9.71875 "/></g></g><g style="fill:#00bf63;fill-opacity:0.4;"><g transform="translate(359.359315, 82.426237)"><path style="stroke:none" d="M 15.953125 -29.421875 C 17.910156 -29.441406 19.625 -29.21875 21.09375 -28.75 C 22.570312 -28.289062 23.828125 -27.695312 24.859375 -26.96875 C 25.898438 -26.238281 26.757812 -25.457031 27.4375 -24.625 C 28.125 -23.800781 28.664062 -23.019531 29.0625 -22.28125 C 29.457031 -21.539062 29.738281 -20.941406 29.90625 -20.484375 C 30.582031 -18.628906 30.984375 -16.765625 31.109375 -14.890625 C 31.234375 -13.015625 31.007812 -11.128906 30.4375 -9.234375 C 28.851562 -4.171875 25.492188 -1.035156 20.359375 0.171875 C 18.285156 0.671875 16.238281 0.828125 14.21875 0.640625 C 12.195312 0.460938 10.226562 -0.125 8.3125 -1.125 C 6.476562 -2.0625 5.019531 -3.285156 3.9375 -4.796875 C 2.851562 -6.304688 2.085938 -8.050781 1.640625 -10.03125 C 1.359375 -11.28125 1.191406 -12.554688 1.140625 -13.859375 C 1.085938 -15.171875 1.160156 -16.441406 1.359375 -17.671875 C 1.566406 -18.910156 1.898438 -20.019531 2.359375 -21 C 2.828125 -22.019531 3.425781 -23.023438 4.15625 -24.015625 C 4.882812 -25.003906 5.785156 -25.90625 6.859375 -26.71875 C 7.941406 -27.539062 9.234375 -28.195312 10.734375 -28.6875 C 12.234375 -29.175781 13.972656 -29.421875 15.953125 -29.421875 Z M 16.09375 -19.09375 C 15.382812 -19.09375 14.722656 -18.894531 14.109375 -18.5 C 13.503906 -18.101562 13.03125 -17.515625 12.6875 -16.734375 C 12.34375 -15.960938 12.207031 -15 12.28125 -13.84375 C 12.363281 -12.726562 12.617188 -11.84375 13.046875 -11.1875 C 13.484375 -10.53125 13.992188 -10.0625 14.578125 -9.78125 C 15.160156 -9.507812 15.703125 -9.394531 16.203125 -9.4375 C 16.722656 -9.46875 17.25 -9.632812 17.78125 -9.9375 C 18.3125 -10.238281 18.765625 -10.710938 19.140625 -11.359375 C 19.515625 -12.015625 19.726562 -12.878906 19.78125 -13.953125 C 19.863281 -15.054688 19.734375 -15.988281 19.390625 -16.75 C 19.054688 -17.507812 18.597656 -18.085938 18.015625 -18.484375 C 17.429688 -18.890625 16.789062 -19.09375 16.09375 -19.09375 Z M 16.09375 -19.09375 "/></g></g><g style="fill:#00bf63;fill-opacity:0.4;"><g transform="translate(390.310889, 82.426237)"><path style="stroke:none" d="M 18.8125 -16.203125 C 18.8125 -17.515625 18.8125 -18.738281 18.8125 -19.875 C 18.8125 -21.007812 18.8125 -22.144531 18.8125 -23.28125 C 18.8125 -24.425781 18.8125 -25.664062 18.8125 -27 C 19.519531 -27.84375 20.320312 -28.441406 21.21875 -28.796875 C 22.125 -29.148438 23.046875 -29.285156 23.984375 -29.203125 C 24.929688 -29.117188 25.800781 -28.851562 26.59375 -28.40625 C 27.382812 -27.96875 28.023438 -27.375 28.515625 -26.625 C 29.003906 -25.875 29.25 -25.007812 29.25 -24.03125 C 29.25 -23.445312 29.253906 -22.617188 29.265625 -21.546875 C 29.273438 -20.484375 29.285156 -19.269531 29.296875 -17.90625 C 29.304688 -16.539062 29.3125 -15.097656 29.3125 -13.578125 C 29.320312 -12.066406 29.320312 -10.566406 29.3125 -9.078125 C 29.3125 -7.585938 29.289062 -6.179688 29.25 -4.859375 C 29.207031 -3.546875 29.148438 -2.394531 29.078125 -1.40625 C 28.460938 -0.789062 27.648438 -0.316406 26.640625 0.015625 C 25.628906 0.347656 24.53125 0.476562 23.34375 0.40625 C 22.164062 0.34375 21.003906 0.03125 19.859375 -0.53125 C 18.710938 -1.101562 17.695312 -1.992188 16.8125 -3.203125 C 16.40625 -3.753906 15.984375 -4.378906 15.546875 -5.078125 C 15.117188 -5.785156 14.707031 -6.488281 14.3125 -7.1875 C 13.925781 -7.894531 13.578125 -8.53125 13.265625 -9.09375 C 12.960938 -9.664062 12.722656 -10.078125 12.546875 -10.328125 C 12.503906 -10.421875 12.445312 -10.503906 12.375 -10.578125 C 12.3125 -10.660156 12.253906 -10.738281 12.203125 -10.8125 C 12.179688 -10.8125 12.148438 -10.804688 12.109375 -10.796875 C 12.078125 -10.785156 12.039062 -10.78125 12 -10.78125 C 12.019531 -9.914062 12.046875 -9.125 12.078125 -8.40625 C 12.117188 -7.6875 12.160156 -6.972656 12.203125 -6.265625 C 12.242188 -5.566406 12.265625 -4.816406 12.265625 -4.015625 C 12.273438 -3.222656 12.273438 -2.304688 12.265625 -1.265625 C 11.316406 -0.492188 10.351562 0.015625 9.375 0.265625 C 8.394531 0.515625 7.457031 0.566406 6.5625 0.421875 C 5.664062 0.273438 4.863281 -0.015625 4.15625 -0.453125 C 3.445312 -0.898438 2.878906 -1.4375 2.453125 -2.0625 C 2.023438 -2.6875 1.800781 -3.34375 1.78125 -4.03125 C 1.75 -5.226562 1.71875 -6.539062 1.6875 -7.96875 C 1.65625 -9.40625 1.628906 -10.894531 1.609375 -12.4375 C 1.597656 -13.988281 1.59375 -15.515625 1.59375 -17.015625 C 1.59375 -18.515625 1.59375 -19.929688 1.59375 -21.265625 C 1.601562 -22.609375 1.628906 -23.789062 1.671875 -24.8125 C 1.710938 -25.84375 1.757812 -26.640625 1.8125 -27.203125 C 2.507812 -27.773438 3.363281 -28.234375 4.375 -28.578125 C 5.382812 -28.929688 6.441406 -29.09375 7.546875 -29.0625 C 8.648438 -29.03125 9.707031 -28.742188 10.71875 -28.203125 C 11.726562 -27.671875 12.578125 -26.828125 13.265625 -25.671875 C 13.765625 -24.828125 14.210938 -24.054688 14.609375 -23.359375 C 15.003906 -22.671875 15.390625 -21.992188 15.765625 -21.328125 C 16.140625 -20.660156 16.523438 -19.96875 16.921875 -19.25 C 17.328125 -18.53125 17.789062 -17.707031 18.3125 -16.78125 C 18.375 -16.664062 18.4375 -16.554688 18.5 -16.453125 C 18.570312 -16.347656 18.632812 -16.25 18.6875 -16.15625 C 18.707031 -16.175781 18.726562 -16.1875 18.75 -16.1875 C 18.769531 -16.1875 18.789062 -16.191406 18.8125 -16.203125 Z M 18.8125 -16.203125 "/></g></g><g style="fill:#00bf63;fill-opacity:0.4;"><g transform="translate(421.435662, 82.426237)"><path style="stroke:none" d="M 1.59375 -6.65625 C 1.550781 -7.3125 1.519531 -8.191406 1.5 -9.296875 C 1.476562 -10.398438 1.46875 -11.640625 1.46875 -13.015625 C 1.46875 -14.390625 1.484375 -15.8125 1.515625 -17.28125 C 1.546875 -18.757812 1.582031 -20.207031 1.625 -21.625 C 1.675781 -23.050781 1.734375 -24.367188 1.796875 -25.578125 C 1.867188 -26.796875 1.953125 -27.804688 2.046875 -28.609375 C 3.003906 -28.703125 4.171875 -28.773438 5.546875 -28.828125 C 6.921875 -28.878906 8.394531 -28.910156 9.96875 -28.921875 C 11.550781 -28.941406 13.132812 -28.9375 14.71875 -28.90625 C 16.3125 -28.882812 17.8125 -28.84375 19.21875 -28.78125 C 20.632812 -28.726562 21.851562 -28.660156 22.875 -28.578125 C 23.039062 -28.328125 23.191406 -27.941406 23.328125 -27.421875 C 23.460938 -26.910156 23.535156 -26.328125 23.546875 -25.671875 C 23.554688 -25.015625 23.472656 -24.347656 23.296875 -23.671875 C 23.128906 -23.003906 22.828125 -22.378906 22.390625 -21.796875 C 21.960938 -21.222656 21.367188 -20.765625 20.609375 -20.421875 C 19.847656 -20.078125 18.890625 -19.90625 17.734375 -19.90625 C 17.347656 -19.90625 16.992188 -19.90625 16.671875 -19.90625 C 16.347656 -19.90625 15.984375 -19.90625 15.578125 -19.90625 C 15.171875 -19.90625 14.671875 -19.90625 14.078125 -19.90625 C 13.484375 -19.90625 12.722656 -19.90625 11.796875 -19.90625 C 11.796875 -19.675781 11.796875 -19.4375 11.796875 -19.1875 C 11.796875 -18.945312 11.796875 -18.6875 11.796875 -18.40625 C 12.222656 -18.40625 12.804688 -18.410156 13.546875 -18.421875 C 14.285156 -18.441406 15.085938 -18.453125 15.953125 -18.453125 C 16.816406 -18.453125 17.664062 -18.414062 18.5 -18.34375 C 19.34375 -18.269531 20.070312 -18.132812 20.6875 -17.9375 C 21.257812 -16.664062 21.492188 -15.484375 21.390625 -14.390625 C 21.296875 -13.296875 20.867188 -12.398438 20.109375 -11.703125 C 19.359375 -11.015625 18.269531 -10.632812 16.84375 -10.5625 C 16.363281 -10.539062 15.910156 -10.53125 15.484375 -10.53125 C 15.066406 -10.53125 14.578125 -10.535156 14.015625 -10.546875 C 13.460938 -10.554688 12.734375 -10.5625 11.828125 -10.5625 C 11.828125 -10.25 11.828125 -9.953125 11.828125 -9.671875 C 11.828125 -9.398438 11.828125 -9.109375 11.828125 -8.796875 C 11.921875 -8.796875 12.023438 -8.796875 12.140625 -8.796875 C 12.253906 -8.796875 12.367188 -8.796875 12.484375 -8.796875 C 14.023438 -8.796875 15.566406 -8.796875 17.109375 -8.796875 C 18.660156 -8.796875 20.207031 -8.796875 21.75 -8.796875 C 22.300781 -8.023438 22.65625 -7.171875 22.8125 -6.234375 C 22.96875 -5.304688 22.898438 -4.398438 22.609375 -3.515625 C 22.328125 -2.628906 21.78125 -1.863281 20.96875 -1.21875 C 20.164062 -0.582031 19.078125 -0.175781 17.703125 0 C 17.222656 0.0625 16.570312 0.113281 15.75 0.15625 C 14.9375 0.207031 14.039062 0.238281 13.0625 0.25 C 12.082031 0.257812 11.109375 0.253906 10.140625 0.234375 C 9.171875 0.210938 8.296875 0.171875 7.515625 0.109375 C 6.734375 0.0546875 6.132812 -0.015625 5.71875 -0.109375 C 4.363281 -0.460938 3.363281 -1.148438 2.71875 -2.171875 C 2.082031 -3.203125 1.707031 -4.695312 1.59375 -6.65625 Z M 1.59375 -6.65625 "/></g></g><g style="fill:#00bf63;fill-opacity:1;"><g transform="translate(331.427702, 80.513543)"><path style="stroke:none" d="M 13.46875 -9.71875 C 14.507812 -9.71875 15.703125 -9.734375 17.046875 -9.765625 C 18.390625 -9.796875 19.8125 -9.800781 21.3125 -9.78125 C 22.8125 -9.757812 24.300781 -9.648438 25.78125 -9.453125 C 26.363281 -8.378906 26.617188 -7.300781 26.546875 -6.21875 C 26.484375 -5.132812 26.1875 -4.132812 25.65625 -3.21875 C 25.125 -2.300781 24.4375 -1.550781 23.59375 -0.96875 C 22.75 -0.394531 21.828125 -0.0703125 20.828125 0 C 20.035156 0.0625 19.179688 0.0976562 18.265625 0.109375 C 17.359375 0.128906 16.460938 0.140625 15.578125 0.140625 C 14.691406 0.140625 13.882812 0.132812 13.15625 0.125 C 12.4375 0.113281 11.859375 0.101562 11.421875 0.09375 C 10.992188 0.09375 10.78125 0.09375 10.78125 0.09375 C 10.207031 0.09375 9.539062 0.0625 8.78125 0 C 8.019531 -0.0625 7.242188 -0.1875 6.453125 -0.375 C 5.671875 -0.5625 4.9375 -0.867188 4.25 -1.296875 C 3.570312 -1.722656 3.003906 -2.300781 2.546875 -3.03125 C 2.097656 -3.757812 1.835938 -4.679688 1.765625 -5.796875 C 1.679688 -7.085938 1.859375 -8.304688 2.296875 -9.453125 C 2.742188 -10.609375 3.382812 -11.734375 4.21875 -12.828125 C 5.0625 -13.929688 6.046875 -15.039062 7.171875 -16.15625 C 8.296875 -17.269531 9.5 -18.429688 10.78125 -19.640625 C 9.4375 -19.640625 8.148438 -19.613281 6.921875 -19.5625 C 5.691406 -19.519531 4.640625 -19.484375 3.765625 -19.453125 C 2.890625 -19.421875 2.304688 -19.4375 2.015625 -19.5 C 1.648438 -19.957031 1.382812 -20.5625 1.21875 -21.3125 C 1.0625 -22.0625 1.015625 -22.851562 1.078125 -23.6875 C 1.148438 -24.53125 1.367188 -25.328125 1.734375 -26.078125 C 2.097656 -26.828125 2.625 -27.457031 3.3125 -27.96875 C 4.007812 -28.476562 4.894531 -28.757812 5.96875 -28.8125 C 6.5625 -28.851562 7.332031 -28.882812 8.28125 -28.90625 C 9.238281 -28.925781 10.300781 -28.9375 11.46875 -28.9375 C 12.644531 -28.9375 13.847656 -28.9375 15.078125 -28.9375 C 16.316406 -28.9375 17.503906 -28.929688 18.640625 -28.921875 C 19.785156 -28.910156 20.816406 -28.898438 21.734375 -28.890625 C 22.660156 -28.878906 23.394531 -28.875 23.9375 -28.875 C 24.363281 -28.394531 24.707031 -27.722656 24.96875 -26.859375 C 25.226562 -25.992188 25.304688 -25.03125 25.203125 -23.96875 C 25.109375 -22.90625 24.71875 -21.835938 24.03125 -20.765625 C 23.664062 -20.191406 23.164062 -19.53125 22.53125 -18.78125 C 21.894531 -18.03125 21.175781 -17.226562 20.375 -16.375 C 19.582031 -15.53125 18.765625 -14.695312 17.921875 -13.875 C 17.085938 -13.050781 16.28125 -12.273438 15.5 -11.546875 C 14.71875 -10.828125 14.039062 -10.21875 13.46875 -9.71875 Z M 13.46875 -9.71875 "/></g></g><g style="fill:#00bf63;fill-opacity:1;"><g transform="translate(357.446614, 80.513543)"><path style="stroke:none" d="M 15.953125 -29.421875 C 17.910156 -29.441406 19.625 -29.21875 21.09375 -28.75 C 22.570312 -28.289062 23.828125 -27.695312 24.859375 -26.96875 C 25.898438 -26.238281 26.757812 -25.457031 27.4375 -24.625 C 28.125 -23.800781 28.664062 -23.019531 29.0625 -22.28125 C 29.457031 -21.539062 29.738281 -20.941406 29.90625 -20.484375 C 30.582031 -18.628906 30.984375 -16.765625 31.109375 -14.890625 C 31.234375 -13.015625 31.007812 -11.128906 30.4375 -9.234375 C 28.851562 -4.171875 25.492188 -1.035156 20.359375 0.171875 C 18.285156 0.671875 16.238281 0.828125 14.21875 0.640625 C 12.195312 0.460938 10.226562 -0.125 8.3125 -1.125 C 6.476562 -2.0625 5.019531 -3.285156 3.9375 -4.796875 C 2.851562 -6.304688 2.085938 -8.050781 1.640625 -10.03125 C 1.359375 -11.28125 1.191406 -12.554688 1.140625 -13.859375 C 1.085938 -15.171875 1.160156 -16.441406 1.359375 -17.671875 C 1.566406 -18.910156 1.898438 -20.019531 2.359375 -21 C 2.828125 -22.019531 3.425781 -23.023438 4.15625 -24.015625 C 4.882812 -25.003906 5.785156 -25.90625 6.859375 -26.71875 C 7.941406 -27.539062 9.234375 -28.195312 10.734375 -28.6875 C 12.234375 -29.175781 13.972656 -29.421875 15.953125 -29.421875 Z M 16.09375 -19.09375 C 15.382812 -19.09375 14.722656 -18.894531 14.109375 -18.5 C 13.503906 -18.101562 13.03125 -17.515625 12.6875 -16.734375 C 12.34375 -15.960938 12.207031 -15 12.28125 -13.84375 C 12.363281 -12.726562 12.617188 -11.84375 13.046875 -11.1875 C 13.484375 -10.53125 13.992188 -10.0625 14.578125 -9.78125 C 15.160156 -9.507812 15.703125 -9.394531 16.203125 -9.4375 C 16.722656 -9.46875 17.25 -9.632812 17.78125 -9.9375 C 18.3125 -10.238281 18.765625 -10.710938 19.140625 -11.359375 C 19.515625 -12.015625 19.726562 -12.878906 19.78125 -13.953125 C 19.863281 -15.054688 19.734375 -15.988281 19.390625 -16.75 C 19.054688 -17.507812 18.597656 -18.085938 18.015625 -18.484375 C 17.429688 -18.890625 16.789062 -19.09375 16.09375 -19.09375 Z M 16.09375 -19.09375 "/></g></g><g style="fill:#00bf63;fill-opacity:1;"><g transform="translate(388.398188, 80.513543)"><path style="stroke:none" d="M 18.8125 -16.203125 C 18.8125 -17.515625 18.8125 -18.738281 18.8125 -19.875 C 18.8125 -21.007812 18.8125 -22.144531 18.8125 -23.28125 C 18.8125 -24.425781 18.8125 -25.664062 18.8125 -27 C 19.519531 -27.84375 20.320312 -28.441406 21.21875 -28.796875 C 22.125 -29.148438 23.046875 -29.285156 23.984375 -29.203125 C 24.929688 -29.117188 25.800781 -28.851562 26.59375 -28.40625 C 27.382812 -27.96875 28.023438 -27.375 28.515625 -26.625 C 29.003906 -25.875 29.25 -25.007812 29.25 -24.03125 C 29.25 -23.445312 29.253906 -22.617188 29.265625 -21.546875 C 29.273438 -20.484375 29.285156 -19.269531 29.296875 -17.90625 C 29.304688 -16.539062 29.3125 -15.097656 29.3125 -13.578125 C 29.320312 -12.066406 29.320312 -10.566406 29.3125 -9.078125 C 29.3125 -7.585938 29.289062 -6.179688 29.25 -4.859375 C 29.207031 -3.546875 29.148438 -2.394531 29.078125 -1.40625 C 28.460938 -0.789062 27.648438 -0.316406 26.640625 0.015625 C 25.628906 0.347656 24.53125 0.476562 23.34375 0.40625 C 22.164062 0.34375 21.003906 0.03125 19.859375 -0.53125 C 18.710938 -1.101562 17.695312 -1.992188 16.8125 -3.203125 C 16.40625 -3.753906 15.984375 -4.378906 15.546875 -5.078125 C 15.117188 -5.785156 14.707031 -6.488281 14.3125 -7.1875 C 13.925781 -7.894531 13.578125 -8.53125 13.265625 -9.09375 C 12.960938 -9.664062 12.722656 -10.078125 12.546875 -10.328125 C 12.503906 -10.421875 12.445312 -10.503906 12.375 -10.578125 C 12.3125 -10.660156 12.253906 -10.738281 12.203125 -10.8125 C 12.179688 -10.8125 12.148438 -10.804688 12.109375 -10.796875 C 12.078125 -10.785156 12.039062 -10.78125 12 -10.78125 C 12.019531 -9.914062 12.046875 -9.125 12.078125 -8.40625 C 12.117188 -7.6875 12.160156 -6.972656 12.203125 -6.265625 C 12.242188 -5.566406 12.265625 -4.816406 12.265625 -4.015625 C 12.273438 -3.222656 12.273438 -2.304688 12.265625 -1.265625 C 11.316406 -0.492188 10.351562 0.015625 9.375 0.265625 C 8.394531 0.515625 7.457031 0.566406 6.5625 0.421875 C 5.664062 0.273438 4.863281 -0.015625 4.15625 -0.453125 C 3.445312 -0.898438 2.878906 -1.4375 2.453125 -2.0625 C 2.023438 -2.6875 1.800781 -3.34375 1.78125 -4.03125 C 1.75 -5.226562 1.71875 -6.539062 1.6875 -7.96875 C 1.65625 -9.40625 1.628906 -10.894531 1.609375 -12.4375 C 1.597656 -13.988281 1.59375 -15.515625 1.59375 -17.015625 C 1.59375 -18.515625 1.59375 -19.929688 1.59375 -21.265625 C 1.601562 -22.609375 1.628906 -23.789062 1.671875 -24.8125 C 1.710938 -25.84375 1.757812 -26.640625 1.8125 -27.203125 C 2.507812 -27.773438 3.363281 -28.234375 4.375 -28.578125 C 5.382812 -28.929688 6.441406 -29.09375 7.546875 -29.0625 C 8.648438 -29.03125 9.707031 -28.742188 10.71875 -28.203125 C 11.726562 -27.671875 12.578125 -26.828125 13.265625 -25.671875 C 13.765625 -24.828125 14.210938 -24.054688 14.609375 -23.359375 C 15.003906 -22.671875 15.390625 -21.992188 15.765625 -21.328125 C 16.140625 -20.660156 16.523438 -19.96875 16.921875 -19.25 C 17.328125 -18.53125 17.789062 -17.707031 18.3125 -16.78125 C 18.375 -16.664062 18.4375 -16.554688 18.5 -16.453125 C 18.570312 -16.347656 18.632812 -16.25 18.6875 -16.15625 C 18.707031 -16.175781 18.726562 -16.1875 18.75 -16.1875 C 18.769531 -16.1875 18.789062 -16.191406 18.8125 -16.203125 Z M 18.8125 -16.203125 "/></g></g><g style="fill:#00bf63;fill-opacity:1;"><g transform="translate(419.522961, 80.513543)"><path style="stroke:none" d="M 1.59375 -6.65625 C 1.550781 -7.3125 1.519531 -8.191406 1.5 -9.296875 C 1.476562 -10.398438 1.46875 -11.640625 1.46875 -13.015625 C 1.46875 -14.390625 1.484375 -15.8125 1.515625 -17.28125 C 1.546875 -18.757812 1.582031 -20.207031 1.625 -21.625 C 1.675781 -23.050781 1.734375 -24.367188 1.796875 -25.578125 C 1.867188 -26.796875 1.953125 -27.804688 2.046875 -28.609375 C 3.003906 -28.703125 4.171875 -28.773438 5.546875 -28.828125 C 6.921875 -28.878906 8.394531 -28.910156 9.96875 -28.921875 C 11.550781 -28.941406 13.132812 -28.9375 14.71875 -28.90625 C 16.3125 -28.882812 17.8125 -28.84375 19.21875 -28.78125 C 20.632812 -28.726562 21.851562 -28.660156 22.875 -28.578125 C 23.039062 -28.328125 23.191406 -27.941406 23.328125 -27.421875 C 23.460938 -26.910156 23.535156 -26.328125 23.546875 -25.671875 C 23.554688 -25.015625 23.472656 -24.347656 23.296875 -23.671875 C 23.128906 -23.003906 22.828125 -22.378906 22.390625 -21.796875 C 21.960938 -21.222656 21.367188 -20.765625 20.609375 -20.421875 C 19.847656 -20.078125 18.890625 -19.90625 17.734375 -19.90625 C 17.347656 -19.90625 16.992188 -19.90625 16.671875 -19.90625 C 16.347656 -19.90625 15.984375 -19.90625 15.578125 -19.90625 C 15.171875 -19.90625 14.671875 -19.90625 14.078125 -19.90625 C 13.484375 -19.90625 12.722656 -19.90625 11.796875 -19.90625 C 11.796875 -19.675781 11.796875 -19.4375 11.796875 -19.1875 C 11.796875 -18.945312 11.796875 -18.6875 11.796875 -18.40625 C 12.222656 -18.40625 12.804688 -18.410156 13.546875 -18.421875 C 14.285156 -18.441406 15.085938 -18.453125 15.953125 -18.453125 C 16.816406 -18.453125 17.664062 -18.414062 18.5 -18.34375 C 19.34375 -18.269531 20.070312 -18.132812 20.6875 -17.9375 C 21.257812 -16.664062 21.492188 -15.484375 21.390625 -14.390625 C 21.296875 -13.296875 20.867188 -12.398438 20.109375 -11.703125 C 19.359375 -11.015625 18.269531 -10.632812 16.84375 -10.5625 C 16.363281 -10.539062 15.910156 -10.53125 15.484375 -10.53125 C 15.066406 -10.53125 14.578125 -10.535156 14.015625 -10.546875 C 13.460938 -10.554688 12.734375 -10.5625 11.828125 -10.5625 C 11.828125 -10.25 11.828125 -9.953125 11.828125 -9.671875 C 11.828125 -9.398438 11.828125 -9.109375 11.828125 -8.796875 C 11.921875 -8.796875 12.023438 -8.796875 12.140625 -8.796875 C 12.253906 -8.796875 12.367188 -8.796875 12.484375 -8.796875 C 14.023438 -8.796875 15.566406 -8.796875 17.109375 -8.796875 C 18.660156 -8.796875 20.207031 -8.796875 21.75 -8.796875 C 22.300781 -8.023438 22.65625 -7.171875 22.8125 -6.234375 C 22.96875 -5.304688 22.898438 -4.398438 22.609375 -3.515625 C 22.328125 -2.628906 21.78125 -1.863281 20.96875 -1.21875 C 20.164062 -0.582031 19.078125 -0.175781 17.703125 0 C 17.222656 0.0625 16.570312 0.113281 15.75 0.15625 C 14.9375 0.207031 14.039062 0.238281 13.0625 0.25 C 12.082031 0.257812 11.109375 0.253906 10.140625 0.234375 C 9.171875 0.210938 8.296875 0.171875 7.515625 0.109375 C 6.734375 0.0546875 6.132812 -0.015625 5.71875 -0.109375 C 4.363281 -0.460938 3.363281 -1.148438 2.71875 -2.171875 C 2.082031 -3.203125 1.707031 -4.695312 1.59375 -6.65625 Z M 1.59375 -6.65625 "/></g></g><g clip-rule="nonzero" clip-path="url(#baf175fa54)"><g clip-rule="nonzero" clip-path="url(#42456123d9)"><g clip-rule="nonzero" clip-path="url(#2c700a9ec2)"><path style="stroke:none;fill-rule:nonzero;fill: #e965ff;fill-opacity:1;" d="M 162.390625 97.09375 L 182.5625 71.664062 L 231.480469 110.46875 L 211.308594 135.898438 Z M 162.390625 97.09375 "/></g></g></g><path style="fill:none;stroke-width:2;stroke-linecap:butt;stroke-linejoin:miter;stroke:#d9d9d9;stroke-opacity:1;stroke-miterlimit:4;" d="M 0.8885 16.327106 C 11.434474 -4.108787 21.983839 -4.105503 32.53198 16.322736 " transform="matrix(0.335681,0.658259,-0.658259,0.335681,177.308579,63.196152)"/></g></svg>